<svg width="566" height="412" viewBox="0 0 566 412" fill="none" xmlns="http://www.w3.org/2000/svg">
<path d="M329.548 72.5374C340.151 72.5374 348.747 63.9419 348.747 53.3388C348.747 42.7357 340.151 34.1401 329.548 34.1401C318.945 34.1401 310.35 42.7357 310.35 53.3388C310.35 63.9419 318.945 72.5374 329.548 72.5374Z" fill="#F2F2F2"/>
<path d="M478.478 357.467C507.014 335.732 520.644 299.208 512.111 264.366C511.899 263.5 511.675 262.636 511.44 261.774C505.783 241.093 491.788 221.436 471.39 214.828C454.263 209.279 435.568 213.546 417.7 211.34C382.625 207.008 355.432 178.628 336.298 148.914C317.164 119.2 302.459 85.9388 277.035 61.3905C235.126 20.9268 166.763 12.215 114.802 38.5538C62.8415 64.8927 29.7432 123.328 31.1548 181.566C32.5664 239.803 67.1396 295.483 117.348 325.024C135.793 335.877 157.126 343.565 178.357 340.874C196.779 338.54 213.517 328.642 231.852 325.703C260.679 321.083 289.322 334.117 314.255 349.305C339.188 364.493 363.271 382.495 391.604 389.536C419.115 396.373 453.199 376.722 478.478 357.467Z" fill="#F2F2F2"/>
<path d="M437.477 39.7768C436.852 39.3597 436.219 38.9643 435.593 38.5616C417.511 26.9966 398.129 17.6012 377.848 10.5697L373.146 75.4407H343.335V1.10012C341.458 0.711839 339.567 0.345135 337.676 0V75.4407H302.249C282.746 75.4407 264.043 67.6932 250.252 53.9027C236.461 40.1122 228.714 21.4083 228.714 1.90551V1.90545C226.816 2.3153 224.932 2.75391 223.048 3.22128V75.4407H194.193L189.714 13.5825C168.872 21.5755 149.087 32.0866 130.796 44.8819C130.48 45.0976 130.164 45.3205 129.855 45.5362C128.265 46.6507 126.698 47.7868 125.138 48.9372V296.42H210.177L208.675 275.604L200.406 161.314H366.926L358.657 275.604L357.154 296.42H441.252V42.279C440.001 41.4306 438.743 40.5965 437.477 39.7768ZM223.048 142.44H199.04L194.603 81.1066H223.048V142.44ZM337.676 142.44H297.353V141.225C297.353 140.641 297.238 140.062 297.014 139.523C296.79 138.983 296.462 138.493 296.049 138.08C295.635 137.667 295.145 137.34 294.605 137.117C294.065 136.894 293.486 136.78 292.902 136.781H275.372C274.788 136.781 274.21 136.896 273.671 137.119C273.132 137.342 272.642 137.669 272.229 138.082C271.817 138.495 271.489 138.985 271.266 139.524C271.043 140.063 270.928 140.641 270.928 141.225V142.44H228.714V81.1066H337.676V142.44ZM343.335 142.44V81.1066H372.736L368.299 142.44H343.335Z" fill="#CCCCCC"/>
<path d="M0 312.269C6.2464 319.67 13.0026 326.625 20.2191 333.084L545.528 333.804C552.745 327.345 559.501 320.389 565.747 312.988L0 312.269Z" fill="#CCCCCC"/>
<path d="M356.229 245.614V307.238C356.229 308.024 356.541 308.777 357.097 309.332C357.652 309.887 358.405 310.199 359.19 310.2H450.51C451.296 310.199 452.049 309.887 452.604 309.332C453.159 308.777 453.471 308.024 453.472 307.238V245.614C453.47 244.83 453.157 244.078 452.602 243.523C452.047 242.969 451.295 242.657 450.51 242.656H359.19C358.406 242.657 357.653 242.969 357.098 243.523C356.543 244.078 356.23 244.83 356.229 245.614Z" fill="#CCCCCC"/>
<path d="M358.371 246.381V306.478C358.372 306.898 358.539 307.3 358.835 307.597C359.132 307.893 359.534 308.06 359.954 308.061H449.75C450.17 308.06 450.572 307.893 450.869 307.597C451.166 307.3 451.333 306.898 451.333 306.478V246.381C451.333 245.961 451.167 245.558 450.87 245.261C450.573 244.964 450.171 244.796 449.75 244.795H359.954C359.534 244.796 359.131 244.964 358.835 245.261C358.538 245.558 358.371 245.961 358.371 246.381Z" fill="#647BB1"/>
<path d="M354.319 319.257C354.486 319.466 354.699 319.635 354.941 319.751C355.183 319.867 355.448 319.927 355.716 319.925H453.498C453.766 319.925 454.03 319.865 454.271 319.75C454.512 319.635 454.725 319.467 454.894 319.259C455.062 319.052 455.182 318.809 455.245 318.549C455.308 318.289 455.312 318.019 455.257 317.757L453.739 310.547C453.676 310.253 453.541 309.979 453.345 309.751C453.15 309.523 452.9 309.347 452.619 309.24C452.416 309.16 452.199 309.119 451.98 309.119H357.228C357.009 309.119 356.793 309.16 356.589 309.24C356.308 309.347 356.059 309.523 355.863 309.751C355.667 309.979 355.532 310.253 355.469 310.547L353.951 317.757C353.897 318.018 353.902 318.289 353.966 318.548C354.029 318.808 354.15 319.05 354.319 319.257Z" fill="#2F2E41"/>
<path d="M448.627 312.225H450.936C451.13 312.225 451.287 312.068 451.287 311.874V310.769C451.287 310.575 451.13 310.418 450.936 310.418H448.627C448.433 310.418 448.275 310.575 448.275 310.769V311.874C448.275 312.068 448.433 312.225 448.627 312.225Z" fill="#CCCCCC"/>
<path d="M442.603 312.225H444.913C445.106 312.225 445.264 312.068 445.264 311.874V310.769C445.264 310.575 445.106 310.418 444.913 310.418H442.603C442.409 310.418 442.252 310.575 442.252 310.769V311.874C442.252 312.068 442.409 312.225 442.603 312.225Z" fill="#CCCCCC"/>
<path d="M436.58 312.225H438.889C439.083 312.225 439.24 312.068 439.24 311.874V310.769C439.24 310.575 439.083 310.418 438.889 310.418H436.58C436.386 310.418 436.229 310.575 436.229 310.769V311.874C436.229 312.068 436.386 312.225 436.58 312.225Z" fill="#CCCCCC"/>
<path d="M430.556 312.225H432.866C433.06 312.225 433.217 312.068 433.217 311.874V310.769C433.217 310.575 433.06 310.418 432.866 310.418H430.556C430.362 310.418 430.205 310.575 430.205 310.769V311.874C430.205 312.068 430.362 312.225 430.556 312.225Z" fill="#CCCCCC"/>
<path d="M424.532 312.225H426.841C427.035 312.225 427.192 312.068 427.192 311.874V310.769C427.192 310.575 427.035 310.418 426.841 310.418H424.532C424.338 310.418 424.181 310.575 424.181 310.769V311.874C424.181 312.068 424.338 312.225 424.532 312.225Z" fill="#CCCCCC"/>
<path d="M418.509 312.225H420.819C421.013 312.225 421.17 312.068 421.17 311.874V310.769C421.17 310.575 421.013 310.418 420.819 310.418H418.509C418.315 310.418 418.158 310.575 418.158 310.769V311.874C418.158 312.068 418.315 312.225 418.509 312.225Z" fill="#CCCCCC"/>
<path d="M412.486 312.225H414.795C414.989 312.225 415.146 312.068 415.146 311.874V310.769C415.146 310.575 414.989 310.418 414.795 310.418H412.486C412.292 310.418 412.135 310.575 412.135 310.769V311.874C412.135 312.068 412.292 312.225 412.486 312.225Z" fill="#CCCCCC"/>
<path d="M406.462 312.225H408.772C408.966 312.225 409.123 312.068 409.123 311.874V310.769C409.123 310.575 408.966 310.418 408.772 310.418H406.462C406.269 310.418 406.111 310.575 406.111 310.769V311.874C406.111 312.068 406.269 312.225 406.462 312.225Z" fill="#CCCCCC"/>
<path d="M400.44 312.225H402.75C402.943 312.225 403.101 312.068 403.101 311.874V310.769C403.101 310.575 402.943 310.418 402.75 310.418H400.44C400.246 310.418 400.089 310.575 400.089 310.769V311.874C400.089 312.068 400.246 312.225 400.44 312.225Z" fill="#CCCCCC"/>
<path d="M394.416 312.225H396.725C396.919 312.225 397.076 312.068 397.076 311.874V310.769C397.076 310.575 396.919 310.418 396.725 310.418H394.416C394.222 310.418 394.064 310.575 394.064 310.769V311.874C394.064 312.068 394.222 312.225 394.416 312.225Z" fill="#CCCCCC"/>
<path d="M388.393 312.225H390.703C390.897 312.225 391.054 312.068 391.054 311.874V310.769C391.054 310.575 390.897 310.418 390.703 310.418H388.393C388.199 310.418 388.042 310.575 388.042 310.769V311.874C388.042 312.068 388.199 312.225 388.393 312.225Z" fill="#CCCCCC"/>
<path d="M382.37 312.225H384.679C384.873 312.225 385.03 312.068 385.03 311.874V310.769C385.03 310.575 384.873 310.418 384.679 310.418H382.37C382.176 310.418 382.019 310.575 382.019 310.769V311.874C382.019 312.068 382.176 312.225 382.37 312.225Z" fill="#CCCCCC"/>
<path d="M376.346 312.225H378.656C378.85 312.225 379.007 312.068 379.007 311.874V310.769C379.007 310.575 378.85 310.418 378.656 310.418H376.346C376.152 310.418 375.995 310.575 375.995 310.769V311.874C375.995 312.068 376.152 312.225 376.346 312.225Z" fill="#CCCCCC"/>
<path d="M370.323 312.225H372.632C372.826 312.225 372.983 312.068 372.983 311.874V310.769C372.983 310.575 372.826 310.418 372.632 310.418H370.323C370.129 310.418 369.972 310.575 369.972 310.769V311.874C369.972 312.068 370.129 312.225 370.323 312.225Z" fill="#CCCCCC"/>
<path d="M364.299 312.225H366.609C366.803 312.225 366.96 312.068 366.96 311.874V310.769C366.96 310.575 366.803 310.418 366.609 310.418H364.299C364.105 310.418 363.948 310.575 363.948 310.769V311.874C363.948 312.068 364.105 312.225 364.299 312.225Z" fill="#CCCCCC"/>
<path d="M358.276 312.225H360.586C360.779 312.225 360.937 312.068 360.937 311.874V310.769C360.937 310.575 360.779 310.418 360.586 310.418H358.276C358.082 310.418 357.925 310.575 357.925 310.769V311.874C357.925 312.068 358.082 312.225 358.276 312.225Z" fill="#CCCCCC"/>
<path d="M448.697 315.237H451.006C451.2 315.237 451.357 315.079 451.357 314.886V313.781C451.357 313.587 451.2 313.43 451.006 313.43H448.697C448.503 313.43 448.346 313.587 448.346 313.781V314.886C448.346 315.079 448.503 315.237 448.697 315.237Z" fill="#CCCCCC"/>
<path d="M442.675 315.237H444.985C445.179 315.237 445.336 315.079 445.336 314.886V313.781C445.336 313.587 445.179 313.43 444.985 313.43H442.675C442.481 313.43 442.324 313.587 442.324 313.781V314.886C442.324 315.079 442.481 315.237 442.675 315.237Z" fill="#CCCCCC"/>
<path d="M436.65 315.237H438.96C439.153 315.237 439.311 315.079 439.311 314.886V313.781C439.311 313.587 439.153 313.43 438.96 313.43H436.65C436.456 313.43 436.299 313.587 436.299 313.781V314.886C436.299 315.079 436.456 315.237 436.65 315.237Z" fill="#CCCCCC"/>
<path d="M430.627 315.237H432.937C433.131 315.237 433.288 315.079 433.288 314.886V313.781C433.288 313.587 433.131 313.43 432.937 313.43H430.627C430.434 313.43 430.276 313.587 430.276 313.781V314.886C430.276 315.079 430.434 315.237 430.627 315.237Z" fill="#CCCCCC"/>
<path d="M424.605 315.237H426.915C427.108 315.237 427.266 315.079 427.266 314.886V313.781C427.266 313.587 427.108 313.43 426.915 313.43H424.605C424.411 313.43 424.254 313.587 424.254 313.781V314.886C424.254 315.079 424.411 315.237 424.605 315.237Z" fill="#CCCCCC"/>
<path d="M418.581 315.237H420.89C421.084 315.237 421.241 315.079 421.241 314.886V313.781C421.241 313.587 421.084 313.43 420.89 313.43H418.581C418.387 313.43 418.23 313.587 418.23 313.781V314.886C418.23 315.079 418.387 315.237 418.581 315.237Z" fill="#CCCCCC"/>
<path d="M412.558 315.237H414.868C415.062 315.237 415.219 315.079 415.219 314.886V313.781C415.219 313.587 415.062 313.43 414.868 313.43H412.558C412.364 313.43 412.207 313.587 412.207 313.781V314.886C412.207 315.079 412.364 315.237 412.558 315.237Z" fill="#CCCCCC"/>
<path d="M406.534 315.237H408.843C409.037 315.237 409.194 315.079 409.194 314.886V313.781C409.194 313.587 409.037 313.43 408.843 313.43H406.534C406.34 313.43 406.183 313.587 406.183 313.781V314.886C406.183 315.079 406.34 315.237 406.534 315.237Z" fill="#CCCCCC"/>
<path d="M400.509 315.237H402.819C403.013 315.237 403.17 315.079 403.17 314.886V313.781C403.17 313.587 403.013 313.43 402.819 313.43H400.509C400.315 313.43 400.158 313.587 400.158 313.781V314.886C400.158 315.079 400.315 315.237 400.509 315.237Z" fill="#CCCCCC"/>
<path d="M394.489 315.237H396.798C396.992 315.237 397.149 315.079 397.149 314.886V313.781C397.149 313.587 396.992 313.43 396.798 313.43H394.489C394.295 313.43 394.138 313.587 394.138 313.781V314.886C394.138 315.079 394.295 315.237 394.489 315.237Z" fill="#CCCCCC"/>
<path d="M388.464 315.237H390.774C390.968 315.237 391.125 315.079 391.125 314.886V313.781C391.125 313.587 390.968 313.43 390.774 313.43H388.464C388.271 313.43 388.113 313.587 388.113 313.781V314.886C388.113 315.079 388.271 315.237 388.464 315.237Z" fill="#CCCCCC"/>
<path d="M382.441 315.237H384.751C384.944 315.237 385.102 315.079 385.102 314.886V313.781C385.102 313.587 384.944 313.43 384.751 313.43H382.441C382.247 313.43 382.09 313.587 382.09 313.781V314.886C382.09 315.079 382.247 315.237 382.441 315.237Z" fill="#CCCCCC"/>
<path d="M376.418 315.237H378.727C378.921 315.237 379.078 315.079 379.078 314.886V313.781C379.078 313.587 378.921 313.43 378.727 313.43H376.418C376.224 313.43 376.066 313.587 376.066 313.781V314.886C376.066 315.079 376.224 315.237 376.418 315.237Z" fill="#CCCCCC"/>
<path d="M370.394 315.237H372.704C372.898 315.237 373.055 315.079 373.055 314.886V313.781C373.055 313.587 372.898 313.43 372.704 313.43H370.394C370.2 313.43 370.043 313.587 370.043 313.781V314.886C370.043 315.079 370.2 315.237 370.394 315.237Z" fill="#CCCCCC"/>
<path d="M364.371 315.237H366.68C366.874 315.237 367.031 315.079 367.031 314.886V313.781C367.031 313.587 366.874 313.43 366.68 313.43H364.371C364.177 313.43 364.02 313.587 364.02 313.781V314.886C364.02 315.079 364.177 315.237 364.371 315.237Z" fill="#CCCCCC"/>
<path d="M358.348 315.237H360.658C360.852 315.237 361.009 315.079 361.009 314.886V313.781C361.009 313.587 360.852 313.43 360.658 313.43H358.348C358.154 313.43 357.997 313.587 357.997 313.781V314.886C357.997 315.079 358.154 315.237 358.348 315.237Z" fill="#CCCCCC"/>
<path d="M398.704 318.85H422.095C422.289 318.85 422.446 318.693 422.446 318.499V317.394C422.446 317.201 422.289 317.043 422.095 317.043H398.704C398.51 317.043 398.353 317.201 398.353 317.394V318.499C398.353 318.693 398.51 318.85 398.704 318.85Z" fill="#CCCCCC"/>
<path d="M373.921 257.943H371.876C371.256 257.943 370.754 258.445 370.754 259.065C370.754 259.685 371.256 260.188 371.876 260.188H373.921C374.541 260.188 375.044 259.685 375.044 259.065C375.044 258.445 374.541 257.943 373.921 257.943Z" fill="white"/>
<path d="M397.306 257.943H395.261C394.641 257.943 394.139 258.445 394.139 259.065C394.139 259.685 394.641 260.188 395.261 260.188H397.306C397.926 260.188 398.428 259.685 398.428 259.065C398.428 258.445 397.926 257.943 397.306 257.943Z" fill="white"/>
<path d="M403.933 257.943H401.888C401.268 257.943 400.766 258.445 400.766 259.065C400.766 259.685 401.268 260.188 401.888 260.188H403.933C404.553 260.188 405.055 259.685 405.055 259.065C405.055 258.445 404.553 257.943 403.933 257.943Z" fill="white"/>
<path d="M390.946 257.756H378.238C377.618 257.756 377.115 258.258 377.115 258.878C377.115 259.498 377.618 260.001 378.238 260.001H390.946C391.566 260.001 392.068 259.498 392.068 258.878C392.068 258.258 391.566 257.756 390.946 257.756Z" fill="white"/>
<path d="M422.126 257.756H409.417C408.797 257.756 408.295 258.258 408.295 258.878C408.295 259.498 408.797 260.001 409.417 260.001H422.126C422.745 260.001 423.248 259.498 423.248 258.878C423.248 258.258 422.745 257.756 422.126 257.756Z" fill="white"/>
<path d="M380.157 263.01H378.113C377.493 263.01 376.99 263.512 376.99 264.132C376.99 264.752 377.493 265.254 378.113 265.254H380.157C380.777 265.254 381.28 264.752 381.28 264.132C381.28 263.512 380.777 263.01 380.157 263.01Z" fill="white"/>
<path d="M403.542 263.01H401.497C400.878 263.01 400.375 263.512 400.375 264.132C400.375 264.752 400.878 265.254 401.497 265.254H403.542C404.162 265.254 404.665 264.752 404.665 264.132C404.665 263.512 404.162 263.01 403.542 263.01Z" fill="white"/>
<path d="M410.169 263.01H408.124C407.504 263.01 407.002 263.512 407.002 264.132C407.002 264.752 407.504 265.254 408.124 265.254H410.169C410.789 265.254 411.292 264.752 411.292 264.132C411.292 263.512 410.789 263.01 410.169 263.01Z" fill="white"/>
<path d="M397.182 262.823H384.474C383.854 262.823 383.352 263.325 383.352 263.945C383.352 264.565 383.854 265.067 384.474 265.067H397.182C397.802 265.067 398.305 264.565 398.305 263.945C398.305 263.325 397.802 262.823 397.182 262.823Z" fill="white"/>
<path d="M428.363 262.823H415.655C415.035 262.823 414.532 263.325 414.532 263.945C414.532 264.565 415.035 265.067 415.655 265.067H428.363C428.983 265.067 429.485 264.565 429.485 263.945C429.485 263.325 428.983 262.823 428.363 262.823Z" fill="white"/>
<path d="M386.394 268.076H384.349C383.729 268.076 383.227 268.579 383.227 269.199C383.227 269.819 383.729 270.321 384.349 270.321H386.394C387.014 270.321 387.516 269.819 387.516 269.199C387.516 268.579 387.014 268.076 386.394 268.076Z" fill="white"/>
<path d="M409.778 268.076H407.734C407.114 268.076 406.611 268.579 406.611 269.199C406.611 269.819 407.114 270.321 407.734 270.321H409.778C410.398 270.321 410.901 269.819 410.901 269.199C410.901 268.579 410.398 268.076 409.778 268.076Z" fill="white"/>
<path d="M416.404 268.076H414.36C413.74 268.076 413.237 268.579 413.237 269.199C413.237 269.819 413.74 270.321 414.36 270.321H416.404C417.024 270.321 417.527 269.819 417.527 269.199C417.527 268.579 417.024 268.076 416.404 268.076Z" fill="white"/>
<path d="M403.417 267.889H390.709C390.089 267.889 389.587 268.392 389.587 269.012C389.587 269.632 390.089 270.134 390.709 270.134H403.417C404.037 270.134 404.54 269.632 404.54 269.012C404.54 268.392 404.037 267.889 403.417 267.889Z" fill="white"/>
<path d="M434.599 267.889H421.891C421.271 267.889 420.769 268.392 420.769 269.012C420.769 269.632 421.271 270.134 421.891 270.134H434.599C435.219 270.134 435.722 269.632 435.722 269.012C435.722 268.392 435.219 267.889 434.599 267.889Z" fill="white"/>
<path d="M392.63 273.143H390.585C389.965 273.143 389.463 273.646 389.463 274.266C389.463 274.885 389.965 275.388 390.585 275.388H392.63C393.25 275.388 393.752 274.885 393.752 274.266C393.752 273.646 393.25 273.143 392.63 273.143Z" fill="white"/>
<path d="M416.015 273.143H413.97C413.35 273.143 412.848 273.646 412.848 274.266C412.848 274.885 413.35 275.388 413.97 275.388H416.015C416.635 275.388 417.137 274.885 417.137 274.266C417.137 273.646 416.635 273.143 416.015 273.143Z" fill="white"/>
<path d="M422.64 273.143H420.595C419.975 273.143 419.473 273.646 419.473 274.266C419.473 274.885 419.975 275.388 420.595 275.388H422.64C423.26 275.388 423.762 274.885 423.762 274.266C423.762 273.646 423.26 273.143 422.64 273.143Z" fill="white"/>
<path d="M409.653 272.956H396.945C396.325 272.956 395.822 273.458 395.822 274.078C395.822 274.698 396.325 275.201 396.945 275.201H409.653C410.273 275.201 410.775 274.698 410.775 274.078C410.775 273.458 410.273 272.956 409.653 272.956Z" fill="white"/>
<path d="M397.306 293.291H395.261C394.641 293.291 394.139 293.793 394.139 294.413C394.139 295.033 394.641 295.536 395.261 295.536H397.306C397.926 295.536 398.428 295.033 398.428 294.413C398.428 293.793 397.926 293.291 397.306 293.291Z" fill="white"/>
<path d="M403.933 293.291H401.888C401.268 293.291 400.766 293.793 400.766 294.413C400.766 295.033 401.268 295.536 401.888 295.536H403.933C404.553 295.536 405.055 295.033 405.055 294.413C405.055 293.793 404.553 293.291 403.933 293.291Z" fill="white"/>
<path d="M422.126 293.478H409.417C408.797 293.478 408.295 293.98 408.295 294.6C408.295 295.22 408.797 295.723 409.417 295.723H422.126C422.745 295.723 423.248 295.22 423.248 294.6C423.248 293.98 422.745 293.478 422.126 293.478Z" fill="white"/>
<path d="M373.921 293.291H371.876C371.256 293.291 370.754 293.793 370.754 294.413C370.754 295.033 371.256 295.536 371.876 295.536H373.921C374.541 295.536 375.044 295.033 375.044 294.413C375.044 293.793 374.541 293.291 373.921 293.291Z" fill="white"/>
<path d="M390.946 293.478H378.238C377.618 293.478 377.115 293.98 377.115 294.6C377.115 295.22 377.618 295.723 378.238 295.723H390.946C391.566 295.723 392.068 295.22 392.068 294.6C392.068 293.98 391.566 293.478 390.946 293.478Z" fill="white"/>
<path d="M380.157 288.224H378.113C377.493 288.224 376.99 288.726 376.99 289.346C376.99 289.966 377.493 290.469 378.113 290.469H380.157C380.777 290.469 381.28 289.966 381.28 289.346C381.28 288.726 380.777 288.224 380.157 288.224Z" fill="white"/>
<path d="M403.542 288.224H401.497C400.878 288.224 400.375 288.726 400.375 289.346C400.375 289.966 400.878 290.469 401.497 290.469H403.542C404.162 290.469 404.665 289.966 404.665 289.346C404.665 288.726 404.162 288.224 403.542 288.224Z" fill="white"/>
<path d="M410.169 288.224H408.124C407.504 288.224 407.002 288.726 407.002 289.346C407.002 289.966 407.504 290.469 408.124 290.469H410.169C410.789 290.469 411.292 289.966 411.292 289.346C411.292 288.726 410.789 288.224 410.169 288.224Z" fill="white"/>
<path d="M397.182 288.411H384.474C383.854 288.411 383.352 288.914 383.352 289.534C383.352 290.154 383.854 290.656 384.474 290.656H397.182C397.802 290.656 398.305 290.154 398.305 289.534C398.305 288.914 397.802 288.411 397.182 288.411Z" fill="white"/>
<path d="M386.394 283.157H384.349C383.729 283.157 383.227 283.66 383.227 284.28C383.227 284.9 383.729 285.402 384.349 285.402H386.394C387.014 285.402 387.516 284.9 387.516 284.28C387.516 283.66 387.014 283.157 386.394 283.157Z" fill="white"/>
<path d="M409.778 283.157H407.734C407.114 283.157 406.611 283.66 406.611 284.28C406.611 284.9 407.114 285.402 407.734 285.402H409.778C410.398 285.402 410.901 284.9 410.901 284.28C410.901 283.66 410.398 283.157 409.778 283.157Z" fill="white"/>
<path d="M416.404 283.157H414.36C413.74 283.157 413.237 283.66 413.237 284.28C413.237 284.9 413.74 285.402 414.36 285.402H416.404C417.024 285.402 417.527 284.9 417.527 284.28C417.527 283.66 417.024 283.157 416.404 283.157Z" fill="white"/>
<path d="M403.417 283.344H390.709C390.089 283.344 389.587 283.847 389.587 284.467C389.587 285.087 390.089 285.589 390.709 285.589H403.417C404.037 285.589 404.54 285.087 404.54 284.467C404.54 283.847 404.037 283.344 403.417 283.344Z" fill="white"/>
<path d="M392.63 278.09H390.585C389.965 278.09 389.463 278.593 389.463 279.213C389.463 279.833 389.965 280.335 390.585 280.335H392.63C393.25 280.335 393.752 279.833 393.752 279.213C393.752 278.593 393.25 278.09 392.63 278.09Z" fill="white"/>
<path d="M416.015 278.09H413.97C413.35 278.09 412.848 278.593 412.848 279.213C412.848 279.833 413.35 280.335 413.97 280.335H416.015C416.635 280.335 417.137 279.833 417.137 279.213C417.137 278.593 416.635 278.09 416.015 278.09Z" fill="white"/>
<path d="M422.64 278.09H420.595C419.975 278.09 419.473 278.593 419.473 279.213C419.473 279.833 419.975 280.335 420.595 280.335H422.64C423.26 280.335 423.762 279.833 423.762 279.213C423.762 278.593 423.26 278.09 422.64 278.09Z" fill="white"/>
<path d="M409.653 278.278H396.945C396.325 278.278 395.822 278.78 395.822 279.4C395.822 280.02 396.325 280.523 396.945 280.523H409.653C410.273 280.523 410.775 280.02 410.775 279.4C410.775 278.78 410.273 278.278 409.653 278.278Z" fill="white"/>
<path d="M363.051 352.671L353.452 337.498L383.581 313.481L396.017 299.703C397.632 297.914 399.69 296.579 401.983 295.833C404.276 295.087 406.724 294.956 409.084 295.453C411.443 295.95 413.631 297.058 415.428 298.665C417.226 300.272 418.57 302.323 419.326 304.613C420.447 308.006 420.206 311.701 418.654 314.92C417.102 318.138 414.36 320.628 411.007 321.863L391.342 329.108L363.051 352.671Z" fill="#FFB6B6"/>
<path d="M137.83 242.659V316.403H189.492V242.659C189.493 242.128 189.324 241.612 189.01 241.185C188.695 240.758 188.252 240.443 187.745 240.286C187.506 240.207 187.256 240.168 187.005 240.171H140.325C139.998 240.17 139.674 240.234 139.371 240.359C139.069 240.484 138.794 240.667 138.562 240.898C138.33 241.129 138.146 241.403 138.021 241.706C137.895 242.008 137.83 242.332 137.83 242.659ZM157.992 267.997C158.005 266.544 158.592 265.154 159.625 264.131C160.658 263.108 162.053 262.533 163.507 262.533C164.961 262.533 166.356 263.108 167.388 264.131C168.421 265.154 169.008 266.544 169.022 267.997V276.554C169.014 278.012 168.43 279.407 167.396 280.435C166.363 281.464 164.964 282.041 163.507 282.041C162.049 282.041 160.65 281.464 159.617 280.435C158.583 279.407 157.999 278.012 157.992 276.554V267.997Z" fill="#2F2E41"/>
<path d="M137.672 314.044V321.156C137.673 321.524 137.819 321.877 138.079 322.138C138.339 322.399 138.691 322.547 139.06 322.551H188.263C188.632 322.549 188.985 322.401 189.245 322.139C189.505 321.878 189.651 321.524 189.651 321.156V314.044H137.672Z" fill="#CCCCCC"/>
<path d="M56.5596 131.554V266.2C56.5609 267.916 57.2432 269.561 58.4565 270.774C59.6698 271.988 61.315 272.67 63.0308 272.671H262.562C264.278 272.67 265.923 271.988 267.136 270.774C268.349 269.561 269.032 267.916 269.033 266.2V131.554C269.029 129.84 268.346 128.197 267.133 126.986C265.92 125.774 264.276 125.093 262.562 125.09H63.0308C61.3165 125.093 59.6728 125.774 58.4599 126.986C57.247 128.197 56.5637 129.84 56.5596 131.554Z" fill="#CCCCCC"/>
<path d="M61.2402 133.23V264.539C61.2418 265.456 61.6067 266.335 62.2549 266.983C62.9032 267.631 63.782 267.996 64.6988 267.998H260.901C261.817 267.996 262.696 267.631 263.344 266.983C263.993 266.335 264.358 265.456 264.359 264.539V133.23C264.359 132.312 263.995 131.431 263.347 130.782C262.698 130.132 261.818 129.766 260.901 129.764H64.6988C63.7809 129.766 62.9013 130.132 62.2529 130.782C61.6045 131.431 61.2403 132.312 61.2402 133.23Z" fill="white"/>
<path d="M97.6519 322.069C97.8516 322.319 98.1054 322.521 98.3943 322.659C98.6833 322.797 98.9997 322.868 99.32 322.867H216.047C216.367 322.866 216.682 322.795 216.97 322.657C217.258 322.52 217.512 322.32 217.713 322.072C217.914 321.824 218.057 321.534 218.132 321.224C218.207 320.914 218.212 320.591 218.147 320.278L216.335 311.671C216.26 311.32 216.098 310.994 215.865 310.721C215.631 310.449 215.333 310.239 214.998 310.111C214.755 310.016 214.496 309.967 214.235 309.967H101.125C100.864 309.967 100.605 310.016 100.363 310.111C100.027 310.239 99.7292 310.449 99.4956 310.721C99.262 310.994 99.1003 311.32 99.0252 311.671L97.2133 320.278C97.1488 320.59 97.1547 320.913 97.2306 321.223C97.3065 321.533 97.4504 321.821 97.6519 322.069Z" fill="#2F2E41"/>
<path d="M254.533 147.852H70.9474C70.7566 147.848 70.575 147.769 70.4416 147.633C70.3081 147.497 70.2334 147.313 70.2334 147.122C70.2334 146.932 70.3081 146.748 70.4416 146.612C70.575 146.475 70.7566 146.397 70.9474 146.392H254.533C254.724 146.397 254.905 146.475 255.039 146.612C255.172 146.748 255.247 146.932 255.247 147.122C255.247 147.313 255.172 147.497 255.039 147.633C254.905 147.769 254.724 147.848 254.533 147.852Z" fill="#CCCCCC"/>
<path d="M83.4446 142.665C85.8075 142.665 87.7231 140.707 87.7231 138.291C87.7231 135.875 85.8075 133.917 83.4446 133.917C81.0816 133.917 79.166 135.875 79.166 138.291C79.166 140.707 81.0816 142.665 83.4446 142.665Z" fill="#CCCCCC"/>
<path d="M98.2258 142.665C100.589 142.665 102.504 140.707 102.504 138.291C102.504 135.875 100.589 133.917 98.2258 133.917C95.8628 133.917 93.9473 135.875 93.9473 138.291C93.9473 140.707 95.8628 142.665 98.2258 142.665Z" fill="#CCCCCC"/>
<path d="M113.005 142.665C115.368 142.665 117.284 140.707 117.284 138.291C117.284 135.875 115.368 133.917 113.005 133.917C110.642 133.917 108.727 135.875 108.727 138.291C108.727 140.707 110.642 142.665 113.005 142.665Z" fill="#CCCCCC"/>
<path d="M245.633 134.999H235.136C234.928 135.003 234.731 135.089 234.586 135.238C234.441 135.386 234.359 135.585 234.359 135.793C234.359 136.001 234.441 136.2 234.586 136.348C234.731 136.497 234.928 136.583 235.136 136.588H245.633C245.842 136.585 246.041 136.5 246.188 136.351C246.335 136.202 246.417 136.002 246.417 135.793C246.417 135.584 246.335 135.384 246.188 135.235C246.041 135.086 245.842 135.001 245.633 134.999Z" fill="#CCCCCC"/>
<path d="M245.632 137.982H235.135C234.927 137.987 234.729 138.073 234.584 138.221C234.439 138.37 234.357 138.569 234.357 138.777C234.357 138.985 234.439 139.184 234.584 139.333C234.729 139.481 234.927 139.567 235.135 139.571H245.632C245.841 139.569 246.041 139.484 246.188 139.335C246.335 139.187 246.417 138.986 246.417 138.777C246.417 138.568 246.335 138.367 246.188 138.218C246.041 138.07 245.841 137.985 245.632 137.982Z" fill="#CCCCCC"/>
<path d="M245.633 140.967H235.136C234.928 140.971 234.731 141.057 234.586 141.206C234.441 141.354 234.359 141.554 234.359 141.761C234.359 141.969 234.441 142.168 234.586 142.316C234.731 142.465 234.928 142.551 235.136 142.556H245.633C245.842 142.553 246.041 142.468 246.188 142.319C246.335 142.17 246.417 141.97 246.417 141.761C246.417 141.552 246.335 141.352 246.188 141.203C246.041 141.055 245.842 140.969 245.633 140.967Z" fill="#CCCCCC"/>
<path d="M498.717 317.165C499.034 318.088 499.635 318.886 500.434 319.445C501.232 320.005 502.188 320.297 503.163 320.279L522.211 319.789C523.194 319.77 524.143 319.434 524.918 318.83C525.693 318.227 526.252 317.388 526.512 316.441L529.207 287.617C530.164 288.05 531.205 288.264 532.255 288.243C533.167 288.22 534.065 288.018 534.899 287.648C535.733 287.277 536.485 286.747 537.114 286.086C537.743 285.425 538.235 284.646 538.563 283.795C538.891 282.944 539.048 282.036 539.025 281.124C539.002 280.212 538.8 279.313 538.429 278.48C538.059 277.646 537.529 276.893 536.867 276.264C536.206 275.636 535.428 275.144 534.577 274.816C533.725 274.488 532.818 274.331 531.906 274.354C531.486 274.352 531.068 274.396 530.657 274.484C530.211 274.001 529.669 273.617 529.065 273.356C528.462 273.096 527.81 272.965 527.153 272.971L497.852 273.728C497.609 273.737 497.367 273.767 497.129 273.818C496.487 273.938 495.877 274.194 495.342 274.569C494.807 274.944 494.358 275.429 494.026 275.992C493.694 276.555 493.486 277.183 493.417 277.833C493.348 278.483 493.419 279.14 493.625 279.76L498.717 317.165ZM529.76 285.66L531.678 278.791C531.896 277.998 531.901 277.161 531.693 276.365C531.786 276.364 531.868 276.32 531.961 276.32C533.276 276.293 534.549 276.788 535.499 277.698C536.449 278.607 537.001 279.856 537.031 281.171C537.062 282.487 536.57 283.76 535.663 284.713C534.756 285.666 533.509 286.221 532.194 286.255C531.343 286.282 530.502 286.076 529.76 285.66Z" fill="#2F2E41"/>
<path d="M497.128 273.818C497.752 277.387 504.771 279.896 513.21 279.46C520.97 279.103 527.315 276.378 528.478 273.148C528.047 273.021 527.6 272.961 527.152 272.971L497.851 273.728C497.608 273.737 497.366 273.767 497.128 273.818Z" fill="#CCCCCC"/>
<path d="M514.757 301.326C514.796 301.316 514.833 301.3 514.866 301.278L519.003 298.571C519.053 298.538 519.094 298.493 519.122 298.441C519.151 298.389 519.165 298.33 519.165 298.27C519.165 298.21 519.151 298.152 519.122 298.099C519.094 298.047 519.053 298.002 519.003 297.969L514.703 295.153C514.664 295.127 514.619 295.109 514.573 295.1C514.527 295.091 514.479 295.091 514.432 295.101C514.386 295.11 514.342 295.129 514.303 295.156C514.264 295.182 514.23 295.216 514.204 295.256C514.178 295.295 514.161 295.34 514.152 295.386C514.143 295.433 514.143 295.48 514.153 295.527C514.163 295.573 514.182 295.617 514.208 295.656C514.235 295.695 514.269 295.728 514.309 295.754L518.149 298.269L514.472 300.677C514.401 300.723 514.349 300.794 514.324 300.875C514.3 300.957 514.306 301.044 514.34 301.122C514.374 301.2 514.435 301.263 514.511 301.301C514.588 301.338 514.675 301.347 514.757 301.326H514.757Z" fill="#647BB1"/>
<path d="M508.224 301.628C508.294 301.61 508.356 301.572 508.404 301.519C508.452 301.465 508.483 301.399 508.492 301.328C508.502 301.257 508.49 301.185 508.459 301.121C508.427 301.056 508.377 301.003 508.315 300.967L504.502 298.781L508.187 296.044C508.225 296.016 508.257 295.98 508.281 295.94C508.306 295.899 508.322 295.854 508.329 295.808C508.335 295.761 508.333 295.713 508.322 295.668C508.31 295.622 508.29 295.579 508.262 295.541C508.233 295.503 508.198 295.471 508.158 295.447C508.117 295.423 508.072 295.407 508.026 295.4C507.979 295.393 507.931 295.395 507.886 295.407C507.84 295.418 507.797 295.439 507.759 295.467L503.633 298.532C503.585 298.567 503.546 298.614 503.521 298.668C503.496 298.722 503.484 298.782 503.488 298.842C503.491 298.901 503.51 298.959 503.541 299.01C503.573 299.06 503.616 299.102 503.668 299.132L507.957 301.591C508.038 301.637 508.134 301.651 508.224 301.628Z" fill="#647BB1"/>
<path d="M514.346 303.699C514.381 303.69 514.414 303.676 514.444 303.657C514.485 303.633 514.52 303.601 514.548 303.563C514.576 303.524 514.596 303.481 514.607 303.435C514.618 303.389 514.62 303.342 514.613 303.295C514.606 303.249 514.589 303.204 514.565 303.163L508.701 293.522C508.651 293.441 508.571 293.383 508.478 293.36C508.386 293.338 508.288 293.353 508.207 293.403C508.125 293.452 508.067 293.532 508.044 293.625C508.022 293.717 508.037 293.815 508.086 293.897L513.95 303.538C513.99 303.603 514.05 303.654 514.122 303.683C514.193 303.712 514.271 303.718 514.346 303.699Z" fill="#647BB1"/>
<path d="M184.675 187.543H152.901C151.605 187.543 150.554 188.594 150.554 189.89V192.994C150.554 194.29 151.605 195.341 152.901 195.341H184.675C185.972 195.341 187.022 194.29 187.022 192.994V189.89C187.022 188.594 185.972 187.543 184.675 187.543Z" fill="#647BB1"/>
<path d="M203.196 203.139H134.379C133.083 203.139 132.032 204.19 132.032 205.486V208.591C132.032 209.887 133.083 210.938 134.379 210.938H203.196C204.492 210.938 205.543 209.887 205.543 208.591V205.486C205.543 204.19 204.492 203.139 203.196 203.139Z" fill="#E6E6E6"/>
<path d="M203.196 218.736H134.379C133.083 218.736 132.032 219.787 132.032 221.083V224.188C132.032 225.484 133.083 226.535 134.379 226.535H203.196C204.492 226.535 205.543 225.484 205.543 224.188V221.083C205.543 219.787 204.492 218.736 203.196 218.736Z" fill="#E6E6E6"/>
<path d="M209.03 270.964L209.186 271.456L209.194 271.472L213.886 285.736L219.283 302.174L229.438 333.065L229.536 337.863V337.879L230.291 376.48L228.199 381.713L230.554 390.293C230.554 390.293 229.471 377.324 223.663 384.772C220.374 389.004 216.527 393.335 213.369 397.395C217.971 399.257 222.646 400.942 227.396 402.448C228.421 402.776 229.454 403.088 230.488 403.4C230.709 403.465 230.931 403.531 231.152 403.596C246.895 408.252 263.171 410.868 279.58 411.381C280.433 411.405 281.269 411.422 282.081 411.438C282.369 411.446 282.647 411.454 282.926 411.454C283.845 411.463 284.755 411.471 285.674 411.471C287.528 411.471 289.373 411.443 291.211 411.389C304.81 411.005 318.33 409.177 331.542 405.934C331.452 400.479 331.206 394.106 330.853 387.298C330.689 383.96 327.006 380.342 326.785 376.848C326.629 374.223 329.935 371.754 329.762 369.089C328.647 352.675 327.252 358.976 326.219 347.353C326.112 346.213 326.014 345.122 325.924 344.08C325.259 336.616 324.8 331.949 324.8 331.949L329.213 304.134L336.144 260.465L335.611 259.587L335.012 259.292L298.453 241.197L296.469 236.111C295.89 234.646 294.887 233.388 293.587 232.497C292.288 231.607 290.752 231.126 289.177 231.116L265.094 231.018C263.844 231.012 262.611 231.304 261.497 231.871C260.383 232.437 259.42 233.261 258.688 234.274L252.167 243.305L209.03 270.964Z" fill="#CCCCCC"/>
<path d="M234.992 326.191L229.537 337.863L225.813 345.836L219.407 379.376L216.2 382.78L213.452 370.729L184.692 377.115C183.749 371.873 184.44 377.292 183.857 371.542C184.021 371.378 184.194 371.214 184.366 371.05C184.825 370.623 185.211 370.222 185.203 369.836C184.875 350.003 185.859 316.249 194.078 295.801C195.365 292.462 197.062 289.296 199.13 286.376C199.294 286.155 199.45 285.933 199.606 285.712C203.396 280.405 205.791 275.18 209.187 271.464V271.456C209.208 271.439 209.227 271.419 209.244 271.398C209.256 271.392 209.268 271.384 209.277 271.374L232.605 259.004L233.605 287.122L234.319 307.333L234.992 326.191Z" fill="#CCCCCC"/>
<path d="M319.106 329.506L325.92 344.084L328.298 349.161L334.702 382.698L337.899 386.094L340.653 374.046L341.947 373.781L365.286 368.947L372.088 390.551C373.622 387.997 374.226 384.991 373.798 382.043C373.371 379.094 371.939 376.383 369.743 374.369C369.279 373.949 368.892 373.54 368.903 373.152C369.29 349.825 367.863 307.229 354.977 289.698C350.885 284.134 348.429 278.592 344.856 274.721C344.845 274.71 344.845 274.699 344.834 274.699L336.14 260.463L335.609 259.59L335.012 259.291L319.106 329.506Z" fill="#CCCCCC"/>
<path d="M277.831 224.164C295.525 224.164 309.869 209.82 309.869 192.125C309.869 174.431 295.525 160.087 277.831 160.087C260.136 160.087 245.792 174.431 245.792 192.125C245.792 209.82 260.136 224.164 277.831 224.164Z" fill="#FFB6B6"/>
<path d="M321.134 169.747C320.886 169.481 320.586 169.269 320.254 169.122C319.922 168.975 319.563 168.896 319.2 168.891L319.682 167.554C319.839 167.132 319.881 166.677 319.805 166.234C319.728 165.791 319.535 165.376 319.245 165.032C318.955 164.688 318.579 164.428 318.156 164.277C317.732 164.126 317.276 164.091 316.834 164.174L315.08 164.512L315.245 163.34C315.309 162.903 315.257 162.458 315.096 162.047C314.935 161.637 314.67 161.275 314.327 160.998C313.984 160.721 313.575 160.538 313.139 160.467C312.704 160.396 312.258 160.439 311.844 160.593C311.468 160.741 311.064 160.803 310.661 160.775C310.258 160.746 309.866 160.628 309.515 160.428C309.162 160.234 308.855 159.966 308.617 159.642C308.379 159.318 308.214 158.946 308.134 158.551L307.523 155.603L307.458 155.445C304.481 150.484 298.758 146.874 291.755 145.551C285.521 144.365 279.128 144.969 272.966 145.537C270.522 145.767 267.76 146.026 265.46 147.435C263.504 148.643 261.85 151.059 262.188 153.496C256.112 151.634 249.598 155.352 246.369 160.04C242.544 165.619 241.919 172.608 241.818 178.073C241.545 191.001 244.212 201.578 249.727 209.516C250.13 210.091 250.231 211.292 251.029 211.695L250.863 211.429C251.755 211.874 252.661 212.594 252.323 213.363C251.352 215.577 257.802 220.474 262.346 222.092C270.637 225.047 281.659 224.795 289.41 223.731L289.684 221.898C292.481 221.517 294.451 220.79 295.005 219.654C295.982 218.82 296.817 218.073 297.543 217.382L297.55 217.375C297.564 217.361 297.593 217.339 297.607 217.325C301.109 213.967 301.922 212.054 302.288 209.142C302.641 206.288 302.015 203.39 301.375 200.78C314.85 202.865 296.069 186.428 308.623 183.25C308.767 183.206 308.913 183.17 309.062 183.142C309.428 183.056 309.795 182.97 310.147 182.869C311.846 182.408 313.472 181.713 314.979 180.805C318.488 178.67 319.646 175.837 321.458 172.644C321.719 172.19 321.829 171.664 321.771 171.142C321.712 170.621 321.489 170.132 321.134 169.747Z" fill="#2F2E41"/>
<path d="M391.146 331.787C391.139 333.045 391.125 334.807 391.067 336.986C391.06 337.288 391.053 337.597 391.046 337.913C390.952 341.918 390.859 345.276 390.708 349.008C390.701 349.267 390.693 349.518 390.679 349.777C390.478 354.983 390.161 361.044 389.615 370.643C388.601 388.375 386.832 373.081 385.056 379.301C384.97 379.61 384.876 379.977 384.79 380.408C384.521 381.973 384.067 383.501 383.438 384.959C382.496 385.52 381.526 386.059 380.569 386.599C377.844 388.116 375.076 389.576 372.286 390.963C370.719 391.74 369.144 392.502 367.562 393.235C367.311 393.35 367.066 393.466 366.822 393.573C358.721 397.32 350.373 400.506 341.835 403.108C340.167 403.611 338.506 404.1 336.824 404.553C335.069 405.042 333.315 405.502 331.539 405.934C318.327 409.177 304.807 411.006 291.208 411.391C289.375 411.448 287.527 411.47 285.672 411.47C284.752 411.47 283.846 411.463 282.925 411.456C282.645 411.456 282.364 411.448 282.084 411.441C281.271 411.42 280.43 411.405 279.582 411.384C263.173 410.872 246.897 408.255 231.155 403.597L230.486 403.402C229.451 403.086 228.423 402.777 227.395 402.446C222.649 400.943 217.973 399.261 213.366 397.399C209.85 395.982 206.375 394.463 202.94 392.84C202.909 392.831 202.88 392.817 202.854 392.797C202.135 392.466 201.409 392.121 200.69 391.769C200.596 391.718 200.496 391.668 200.395 391.618C197.713 390.309 195.06 388.938 192.435 387.505C190.228 382.436 187.122 381.465 185.195 377.007C184.634 375.682 184.228 374.297 183.987 372.88C183.987 372.865 183.979 372.851 183.979 372.829C184.181 375.504 183.124 368.084 183.972 372.801C183.965 372.714 183.958 372.621 183.951 372.513C183.929 372.254 183.9 371.938 183.857 371.542C181.391 347.462 181.549 319.923 180.478 297.23C180.406 295.764 180.332 294.359 180.255 293.017C180.233 292.571 180.205 292.133 180.176 291.701C180.226 291.572 180.284 291.435 180.348 291.306C180.362 291.268 180.379 291.232 180.399 291.198C180.42 291.153 180.444 291.11 180.471 291.068C180.485 291.047 180.507 291.018 180.521 290.996C180.531 290.972 180.543 290.948 180.557 290.925C180.622 290.824 180.693 290.716 180.773 290.615C180.809 290.572 180.837 290.536 180.873 290.5C180.898 290.464 180.927 290.43 180.96 290.4C180.982 290.365 181.008 290.334 181.039 290.306C181.067 290.277 181.096 290.242 181.132 290.206C181.147 290.183 181.167 290.163 181.19 290.148C181.246 290.083 181.309 290.023 181.377 289.968C181.633 289.732 181.907 289.516 182.196 289.321C182.297 289.256 182.405 289.192 182.505 289.12C183.23 288.686 183.993 288.321 184.785 288.027C185.058 287.926 185.331 287.833 185.626 287.732C185.734 287.703 185.835 287.667 185.942 287.631C186.101 287.581 186.259 287.531 186.424 287.495C187.244 287.25 188.128 287.042 189.085 286.848C189.2 286.826 189.322 286.805 189.444 286.776C189.617 286.74 189.796 286.711 189.976 286.682C190.221 286.639 190.472 286.596 190.724 286.553C192.859 286.215 195.283 285.963 197.957 285.798C198.209 285.784 198.461 285.769 198.712 285.755C199.007 285.74 199.302 285.726 199.604 285.712C199.856 285.697 200.114 285.69 200.373 285.683C200.625 285.668 200.884 285.661 201.15 285.654C201.876 285.633 202.624 285.611 203.386 285.597C205.558 285.553 207.844 285.568 210.246 285.618C211.36 285.647 212.496 285.676 213.661 285.726C213.74 285.726 213.812 285.733 213.884 285.733C214.898 285.769 215.919 285.812 216.969 285.87C217.702 285.906 218.443 285.942 219.183 285.985C219.881 286.028 220.585 286.071 221.297 286.122C221.851 286.15 222.404 286.193 222.965 286.229C223.44 286.265 223.914 286.301 224.389 286.33L225.036 286.373C225.388 286.402 225.741 286.423 226.1 286.459C226.891 286.524 227.682 286.589 228.487 286.654C229.286 286.725 230.098 286.797 230.911 286.869C231.723 286.941 232.543 287.02 233.362 287.099C233.449 287.107 233.528 287.114 233.607 287.121C234.355 287.2 235.102 287.272 235.857 287.351C236.03 287.365 236.21 287.38 236.382 287.401C237.102 287.474 237.836 287.558 238.562 287.636C238.785 287.66 239.007 287.683 239.231 287.707C239.8 287.769 240.361 287.823 240.934 287.89C241.689 287.977 242.458 288.056 243.206 288.156C243.788 288.221 244.371 288.286 244.953 288.358C245.866 288.466 246.794 288.581 247.721 288.703C248.074 288.746 248.426 288.789 248.778 288.839C251.424 289.17 254.099 289.537 256.817 289.918C260.937 290.5 265.122 291.133 269.335 291.816C273.556 292.499 277.801 293.221 282.069 293.981C283.148 294.175 284.227 294.369 285.312 294.57C285.801 294.663 286.29 294.757 286.779 294.85C287.613 295.001 288.447 295.16 289.281 295.318C290.115 295.476 290.95 295.634 291.784 295.8C292.776 295.994 293.775 296.188 294.768 296.382C301.304 297.676 307.804 299.057 314.145 300.502C315.188 300.739 316.231 300.984 317.266 301.221C319.337 301.703 321.388 302.192 323.421 302.688C323.982 302.817 324.535 302.954 325.089 303.091C326.47 303.436 327.85 303.781 329.209 304.133L329.446 304.198C330.446 304.442 331.424 304.694 332.402 304.953C334.71 305.557 336.979 306.168 339.211 306.786C340.692 307.196 342.156 307.611 343.604 308.03C345.768 308.656 347.89 309.289 349.953 309.929C350.464 310.087 350.974 310.245 351.477 310.396C352.987 310.863 354.476 311.338 355.921 311.812C357.072 312.186 358.193 312.567 359.301 312.948C360.408 313.33 361.494 313.711 362.558 314.092C363.241 314.336 363.917 314.595 364.593 314.84C365.563 315.199 366.52 315.559 367.454 315.918C367.742 316.026 368.022 316.141 368.303 316.249C368.483 316.328 368.655 316.393 368.828 316.465C369.166 316.601 369.511 316.731 369.842 316.867C370.179 316.997 370.51 317.133 370.841 317.277C371.165 317.406 371.495 317.543 371.812 317.68C372.135 317.809 372.452 317.946 372.768 318.09C373.034 318.197 373.293 318.312 373.545 318.427C374.055 318.65 374.566 318.873 375.062 319.103C375.306 319.218 375.551 319.326 375.795 319.441L376.356 319.7C376.435 319.743 376.514 319.779 376.593 319.815C376.773 319.901 376.96 319.995 377.14 320.081C377.557 320.275 377.967 320.484 378.369 320.678C378.908 320.951 379.433 321.225 379.937 321.491C380.447 321.764 380.943 322.037 381.418 322.303C381.497 322.346 381.569 322.389 381.648 322.432C381.756 322.49 381.864 322.555 381.972 322.612C382.338 322.821 382.691 323.036 383.043 323.245C383.733 323.669 384.387 324.086 384.999 324.503C385.135 324.597 385.265 324.69 385.401 324.776C385.854 325.1 386.286 325.416 386.688 325.74C386.688 325.747 386.688 325.747 386.696 325.747C386.832 325.848 386.962 325.956 387.091 326.056C387.199 326.157 387.314 326.243 387.422 326.344C387.796 326.668 388.141 326.977 388.457 327.293C388.563 327.391 388.664 327.494 388.759 327.602C388.801 327.637 388.84 327.675 388.874 327.717C389.018 327.861 389.147 328.005 389.27 328.149C389.289 328.168 389.306 328.19 389.32 328.213C389.493 328.415 389.651 328.616 389.802 328.817C389.874 328.918 389.953 329.019 390.018 329.119C390.104 329.242 390.19 329.371 390.262 329.493C390.327 329.594 390.384 329.702 390.442 329.803C390.594 330.062 390.724 330.334 390.83 330.615C390.911 330.806 390.976 331.003 391.024 331.205C391.079 331.396 391.119 331.59 391.146 331.787Z" fill="#2F2E41"/>
<path opacity="0.2" d="M391.148 331.787C391.141 333.045 391.126 334.807 391.069 336.986C391.062 337.288 391.047 337.597 391.04 337.913C390.968 340.969 390.86 344.744 390.709 349.008C390.702 349.267 390.695 349.518 390.68 349.777C390.479 354.983 390.163 361.044 389.616 370.643C388.602 388.375 386.834 373.081 385.058 379.3C380.125 376.266 374.718 373.088 368.937 369.824C367.894 369.234 366.842 368.642 365.78 368.048C354.218 361.598 341.305 354.839 327.823 348.145C327.291 347.879 326.751 347.613 326.219 347.354C295.337 332.089 261.629 317.241 234.32 307.333C229.05 305.42 224.016 303.694 219.285 302.177C209.319 298.992 200.705 296.763 194.076 295.799C187.173 294.793 182.406 295.152 180.479 297.23C180.407 295.763 180.333 294.359 180.256 293.017C180.227 292.571 180.199 292.132 180.17 291.701C180.214 291.583 180.272 291.47 180.328 291.356C180.336 291.339 180.341 291.322 180.35 291.305C180.363 291.268 180.38 291.232 180.4 291.198C180.421 291.153 180.445 291.11 180.472 291.068C180.495 291.017 180.524 290.969 180.558 290.924C180.623 290.824 180.695 290.716 180.774 290.615C180.832 290.54 180.894 290.468 180.961 290.399C180.983 290.365 181.01 290.333 181.04 290.306C181.069 290.277 181.097 290.241 181.133 290.205C181.149 290.183 181.168 290.163 181.191 290.148C181.248 290.083 181.31 290.022 181.378 289.968C181.634 289.732 181.908 289.516 182.198 289.321C182.298 289.256 182.406 289.192 182.507 289.12C183.231 288.686 183.994 288.32 184.786 288.027C185.059 287.926 185.333 287.833 185.627 287.732C185.735 287.703 185.836 287.667 185.944 287.631C186.102 287.581 186.26 287.531 186.425 287.495C187.245 287.25 188.13 287.042 189.086 286.847C189.374 286.79 189.676 286.732 189.978 286.682C190.222 286.639 190.474 286.596 190.725 286.553C192.861 286.215 195.284 285.963 197.959 285.798C198.21 285.783 198.462 285.769 198.714 285.755C199.009 285.74 199.303 285.726 199.605 285.711C199.857 285.697 200.116 285.69 200.375 285.683C200.626 285.668 200.885 285.661 201.151 285.654C201.877 285.632 202.625 285.611 203.387 285.596C205.559 285.56 207.845 285.575 210.247 285.625C211.361 285.647 212.498 285.683 213.662 285.733C213.734 285.733 213.813 285.74 213.885 285.74C214.899 285.769 215.927 285.819 216.97 285.87C217.703 285.906 218.444 285.942 219.184 285.985C219.882 286.028 220.587 286.071 221.298 286.121C221.852 286.15 222.406 286.193 222.967 286.229C223.441 286.265 223.916 286.301 224.39 286.33C224.958 286.373 225.526 286.416 226.102 286.459C226.893 286.524 227.683 286.589 228.489 286.653C229.287 286.725 230.099 286.797 230.912 286.869C231.724 286.941 232.544 287.02 233.364 287.099C233.45 287.106 233.529 287.114 233.608 287.121C234.356 287.2 235.104 287.272 235.859 287.351C240.044 287.775 244.351 288.271 248.78 288.839C251.426 289.177 254.105 289.539 256.819 289.925C260.939 290.507 265.123 291.14 269.337 291.816C273.558 292.499 277.802 293.22 282.071 293.98C283.149 294.174 284.228 294.369 285.314 294.57C286.637 294.814 287.96 295.064 289.283 295.318C290.117 295.476 290.951 295.634 291.785 295.799C292.777 295.994 293.777 296.188 294.769 296.382C301.305 297.676 307.805 299.057 314.147 300.502C315.189 300.739 316.232 300.984 317.267 301.221C319.338 301.703 321.39 302.192 323.422 302.688C323.983 302.824 324.537 302.961 325.09 303.098C326.478 303.443 327.852 303.788 329.211 304.133V304.14C329.29 304.155 329.369 304.176 329.448 304.198C330.44 304.449 331.425 304.701 332.403 304.96C334.711 305.564 336.981 306.173 339.212 306.786C340.693 307.203 342.16 307.613 343.606 308.03C345.77 308.663 347.891 309.296 349.955 309.928C350.465 310.087 350.976 310.245 351.479 310.396C352.989 310.87 354.47 311.342 355.923 311.812C357.073 312.186 358.195 312.567 359.302 312.948C360.409 313.329 361.495 313.71 362.559 314.092C363.249 314.336 363.925 314.588 364.594 314.832C365.572 315.192 366.521 315.551 367.456 315.918C367.743 316.026 368.024 316.141 368.304 316.249C368.829 316.45 369.34 316.659 369.843 316.867C370.181 316.996 370.512 317.133 370.842 317.277C371.166 317.406 371.497 317.543 371.813 317.68C372.137 317.809 372.453 317.946 372.769 318.089C373.035 318.197 373.294 318.312 373.546 318.427C374.056 318.65 374.567 318.873 375.063 319.103C375.308 319.218 375.552 319.326 375.797 319.441L376.357 319.7C376.436 319.743 376.516 319.779 376.595 319.815C377.206 320.103 377.795 320.39 378.371 320.678C378.91 320.951 379.435 321.224 379.938 321.49C380.535 321.807 381.103 322.116 381.649 322.432C381.757 322.49 381.865 322.555 381.973 322.612C382.34 322.821 382.692 323.036 383.044 323.245C383.735 323.669 384.389 324.086 385 324.503C385.604 324.92 386.165 325.33 386.69 325.74C386.69 325.747 386.69 325.747 386.697 325.747C386.949 325.948 387.193 326.15 387.423 326.344C387.797 326.667 388.142 326.977 388.459 327.293C388.565 327.391 388.665 327.494 388.761 327.602C388.802 327.637 388.841 327.675 388.876 327.717C389.027 327.883 389.178 328.048 389.322 328.213C389.494 328.415 389.652 328.616 389.803 328.817C389.875 328.918 389.954 329.019 390.019 329.119C390.105 329.241 390.192 329.371 390.263 329.493C390.328 329.594 390.386 329.702 390.443 329.802C390.596 330.062 390.726 330.333 390.831 330.615C390.91 330.807 390.975 331.004 391.026 331.204C391.08 331.395 391.121 331.59 391.148 331.787Z" fill="black"/>
</svg>
