<svg width="645" height="328" viewBox="0 0 645 328" fill="none" xmlns="http://www.w3.org/2000/svg">
<g clip-path="url(#clip0_890_172)">
<path d="M247.907 55.7603C256.301 55.7603 263.105 48.9562 263.105 40.5629C263.105 32.1696 256.301 25.3655 247.907 25.3655C239.514 25.3655 232.71 32.1696 232.71 40.5629C232.71 48.9562 239.514 55.7603 247.907 55.7603Z" fill="#FBE844"/>
<path d="M281.92 33.3667C281.491 31.9614 280.661 30.712 279.531 29.7726C278.402 28.8331 277.022 28.2444 275.562 28.0791C275.528 28.0762 275.494 28.0762 275.46 28.0791C275.419 28.0663 275.377 28.0568 275.334 28.0506C270.246 27.3904 264.588 28.9954 260.781 32.4902C259.367 33.7671 258.237 35.3259 257.462 37.0663C256.756 36.1022 255.826 35.3246 254.752 34.801C253.678 34.2773 252.493 34.0234 251.298 34.0611C249.758 34.1629 248.286 34.7373 247.085 35.706C245.883 36.6747 245.009 37.9904 244.582 39.474C244.535 39.6552 244.548 39.8468 244.619 40.0201C244.689 40.1934 244.814 40.3392 244.975 40.4359C245.432 40.8274 245.977 41.1044 246.563 41.2441C247.821 41.5116 249.09 41.7564 250.359 41.9783C252.841 42.4109 255.336 42.7619 257.844 43.0313C259.5 43.2077 261.16 43.3481 262.824 43.4525C266.262 43.6688 269.717 43.72 273.16 43.6119C274.868 43.5549 276.507 43.498 278.067 42.7467C279.203 42.1878 280.174 41.3423 280.884 40.2936C281.552 39.2848 281.991 38.1418 282.17 36.9451C282.349 35.7483 282.264 34.5269 281.92 33.3667Z" fill="#E6E6E6"/>
<path d="M250.655 55.5076C250.627 54.8708 250.52 54.24 250.337 53.6294C249.906 52.2241 249.074 50.9752 247.944 50.0359C246.814 49.0966 245.434 48.5078 243.973 48.3417C243.941 48.3389 243.909 48.3389 243.877 48.3417C243.834 48.3295 243.79 48.32 243.746 48.3133C240.929 47.9683 238.072 48.262 235.384 49.1727C231.252 50.5558 227.627 53.3447 225.879 57.329C225.173 56.3642 224.241 55.5863 223.166 55.0627C222.091 54.539 220.905 54.2854 219.709 54.3238C218.169 54.4256 216.698 55 215.496 55.9686C214.294 56.9373 213.42 58.2531 212.993 59.7366C212.949 59.9179 212.963 60.1085 213.033 60.2813C213.104 60.454 213.227 60.6 213.386 60.6985C213.844 61.0889 214.388 61.3658 214.974 61.5067C216.237 61.7743 217.501 62.019 218.776 62.241C221.257 62.6736 223.75 63.0246 226.255 63.294C231.343 63.8402 236.462 64.0341 241.577 63.8745C243.279 63.8176 244.924 63.7607 246.483 63.0094C247.618 62.4503 248.587 61.6047 249.295 60.5562C250.293 59.0694 250.771 57.2945 250.655 55.5076Z" fill="#E6E6E6"/>
<path d="M448.586 239.914C448.804 250.276 447.374 260.607 444.349 270.52C444.243 270.88 444.116 271.24 443.989 271.6H381.633C382.525 267.211 383.94 262.944 385.848 258.892C391.038 247.878 399.51 238.453 407.876 229.091C419.399 216.192 430.646 203.398 432.425 186.623C436.992 193.586 440.637 201.111 443.269 209.011C440.047 210.205 437.089 212.018 434.564 214.349C433.865 215.005 433.124 215.959 433.484 216.869C433.823 217.632 434.755 217.886 435.581 218.056C437.572 218.437 439.563 218.818 441.554 219.178C443.121 219.496 444.71 219.792 446.298 220.089C447.694 226.609 448.46 233.248 448.586 239.914Z" fill="#F2F2F2"/>
<path d="M500.966 233.051C490.968 239.13 484.614 248.535 479.425 259.061C474.909 260.091 470.74 262.281 467.331 265.416C466.611 266.072 465.869 267.025 466.251 267.936C466.568 268.699 467.521 268.953 468.347 269.122C470.317 269.504 472.329 269.885 474.299 270.245C474.109 270.69 473.918 271.156 473.727 271.6H407.644C410.643 267.555 413.966 263.758 417.577 260.248C418.361 259.464 419.166 258.722 419.992 257.96C428.416 250.347 438.089 244.242 448.586 239.914C465.123 233.001 483.206 230.632 500.966 233.051Z" fill="#F2F2F2"/>
<path d="M418.657 271.6H359.817C359.496 266.889 359.524 262.159 359.902 257.452C362.253 228.371 378.075 200.666 401.946 183.891C398.896 194.757 400.463 205.559 403.64 216.403C403.195 216.552 402.751 216.679 402.348 216.848C399.126 218.042 396.168 219.855 393.643 222.186C392.944 222.842 392.203 223.796 392.563 224.706C392.88 225.469 393.833 225.723 394.659 225.892C396.65 226.274 398.641 226.655 400.611 227.015C402.2 227.333 403.788 227.629 405.377 227.947C406.118 228.074 406.86 228.222 407.601 228.37C407.707 228.625 407.77 228.858 407.876 229.091C411.604 239.363 415.671 249.721 417.577 260.248C418.049 262.889 418.374 265.555 418.551 268.233C418.615 269.355 418.657 270.478 418.657 271.6Z" fill="#F2F2F2"/>
<path d="M97.9738 239.914C98.1922 250.276 96.7623 260.607 93.7377 270.52C93.6317 270.88 93.5046 271.24 93.3775 271.6H31.0215C31.9129 267.211 33.328 262.944 35.2366 258.892C40.4257 247.878 48.898 238.453 57.2644 229.091C68.7868 216.192 80.0337 203.398 81.813 186.623C86.3802 193.586 90.0254 201.111 92.6575 209.011C89.435 210.205 86.4776 212.018 83.9522 214.349C83.2532 215.005 82.5118 215.959 82.872 216.869C83.2108 217.632 84.1428 217.886 84.9688 218.056C86.9598 218.437 88.9508 218.818 90.9418 219.178C92.5092 219.496 94.0977 219.792 95.6863 220.089C97.0825 226.609 97.8486 233.248 97.9738 239.914Z" fill="#F2F2F2"/>
<path d="M150.353 233.051C140.356 239.13 134.002 248.535 128.813 259.061C124.297 260.091 120.128 262.281 116.719 265.416C115.998 266.072 115.257 267.025 115.638 267.936C115.956 268.699 116.909 268.953 117.735 269.122C119.705 269.504 121.717 269.885 123.687 270.245C123.496 270.69 123.306 271.156 123.115 271.6H57.0312C60.0311 267.555 63.3532 263.758 66.965 260.248C67.7487 259.464 68.5536 258.722 69.3797 257.96C77.8037 250.347 87.4765 244.242 97.9736 239.914C114.51 233.001 132.594 230.632 150.353 233.051Z" fill="#F2F2F2"/>
<path d="M68.0455 271.6H9.20536C8.88404 266.889 8.91239 262.159 9.29017 257.452C11.6412 228.371 27.4631 200.666 51.3338 183.891C48.2838 194.757 49.8511 205.559 53.0283 216.403C52.5836 216.552 52.1387 216.679 51.7363 216.848C48.5139 218.042 45.5565 219.855 43.031 222.186C42.3321 222.842 41.5908 223.796 41.9508 224.706C42.2684 225.469 43.2216 225.723 44.0476 225.892C46.0386 226.274 48.0296 226.655 49.9994 227.015C51.588 227.333 53.1766 227.629 54.7651 227.947C55.5064 228.074 56.2478 228.222 56.989 228.37C57.0949 228.625 57.1585 228.858 57.2644 229.091C60.9922 239.363 65.0589 249.721 66.9652 260.248C67.4371 262.889 67.7623 265.555 67.9396 268.233C68.0031 269.355 68.0455 270.478 68.0455 271.6Z" fill="#F2F2F2"/>
<path d="M287.098 246.897L339.672 251.564L340.236 251.615V27.2806C340.048 27.1497 339.86 27.0188 339.672 26.8879C328.715 19.2237 316.863 12.9275 304.378 8.13923L301.691 45.1925L301.447 48.5848L298.789 85.3308L297.969 96.6347L287.194 245.588L287.098 246.897Z" fill="#E6E6E6"/>
<path d="M157.081 23.1028C156.705 23.3419 156.33 23.581 155.954 23.8314V251.615L157.081 251.513L209.087 246.897L208.99 245.588L198.215 96.6346L197.396 85.3308L194.738 48.5848L194.493 45.1925L191.676 6.33494C179.526 10.5465 167.914 16.1746 157.081 23.1028Z" fill="#E6E6E6"/>
<path d="M155.954 23.8314C155.197 24.3209 154.44 24.8217 153.694 25.3283V254.723C153.694 260.455 157.092 265.259 161.634 266.482C162.377 266.683 163.142 266.785 163.911 266.784H332.842C333.609 266.785 334.373 266.684 335.113 266.482C336.802 266.014 338.332 265.097 339.542 263.83C341.849 261.364 343.109 258.1 343.059 254.723V29.3182C342.126 28.6295 341.186 27.9465 340.236 27.2806C340.048 27.1497 339.86 27.0188 339.672 26.8879V254.723C339.674 255.461 339.586 256.197 339.411 256.914C338.608 260.301 335.961 262.783 332.842 262.783H163.911C160.143 262.783 157.081 259.168 157.081 254.723V23.1028C156.705 23.3419 156.33 23.5809 155.954 23.8314Z" fill="#E6E6E6"/>
<path d="M341.366 45.1948H155.386V48.5865H341.366V45.1948Z" fill="#E6E6E6"/>
<path d="M284.405 1.92952C283.279 1.65062 282.152 1.3888 281.013 1.14405V93.2423H284.405V1.92952Z" fill="#E6E6E6"/>
<path d="M215.74 0C214.608 0.210595 213.475 0.426884 212.348 0.660246V93.2423H215.74V0Z" fill="#E6E6E6"/>
<path d="M118.923 260.847C118.923 262.794 119.295 264.722 120.022 266.528C120.301 267.228 120.634 267.905 121.018 268.554C121.514 269.4 122.09 270.197 122.737 270.933C124.167 272.563 125.928 273.868 127.903 274.762C129.878 275.657 132.021 276.119 134.189 276.118H356.913C360.961 276.118 364.844 274.51 367.707 271.647C370.57 268.785 372.178 264.902 372.178 260.853C372.178 256.805 370.57 252.922 367.707 250.059C364.844 247.196 360.961 245.588 356.913 245.588H134.189C130.142 245.592 126.263 247.201 123.401 250.061C120.539 252.922 118.929 256.801 118.923 260.847Z" fill="#E6E6E6"/>
<path d="M155.387 96.6359L340.235 96.6359V85.3302L155.387 85.3302V96.6359Z" fill="#E6E6E6"/>
<path d="M255.725 88.1566H239.897C239.897 86.5074 240.552 84.9258 241.718 83.7597C242.884 82.5936 244.466 81.9385 246.115 81.9384H249.506C250.323 81.9384 251.132 82.0993 251.886 82.4118C252.64 82.7243 253.326 83.1823 253.903 83.7597C254.481 84.3371 254.939 85.0226 255.251 85.777C255.564 86.5314 255.725 87.34 255.725 88.1566H255.725Z" fill="#E6E6E6"/>
<path d="M0 269.567C4.94457 275.426 10.2927 280.932 16.0052 286.045H475.091C480.803 280.932 486.151 275.426 491.096 269.567H0Z" fill="#3F3D56"/>
<path d="M225.786 214.465V272.84H266.681V214.465C266.682 214.045 266.548 213.636 266.299 213.298C266.05 212.96 265.699 212.711 265.298 212.587C265.109 212.525 264.911 212.494 264.712 212.496H227.761C227.502 212.495 227.246 212.546 227.006 212.645C226.767 212.743 226.549 212.888 226.365 213.071C226.182 213.254 226.036 213.471 225.937 213.711C225.838 213.95 225.786 214.206 225.786 214.465ZM241.746 234.523C241.757 233.372 242.221 232.272 243.039 231.463C243.856 230.653 244.961 230.198 246.111 230.198C247.262 230.198 248.366 230.653 249.184 231.463C250.001 232.272 250.466 233.372 250.477 234.523V241.296C250.471 242.45 250.009 243.555 249.19 244.369C248.372 245.183 247.265 245.64 246.111 245.64C244.957 245.64 243.85 245.183 243.032 244.369C242.214 243.555 241.752 242.45 241.746 241.296V234.523Z" fill="#2F2E41"/>
<path d="M225.661 270.973V276.602C225.662 276.894 225.778 277.173 225.984 277.38C226.189 277.587 226.468 277.704 226.76 277.706H265.708C266 277.705 266.28 277.588 266.485 277.381C266.691 277.174 266.807 276.894 266.807 276.602V270.973H225.661Z" fill="#3F3D56"/>
<path d="M161.452 126.516V233.1C161.453 234.458 161.993 235.761 162.954 236.721C163.914 237.682 165.216 238.222 166.575 238.223H324.521C325.879 238.222 327.181 237.682 328.142 236.721C329.102 235.761 329.642 234.458 329.643 233.1V126.516C329.64 125.159 329.099 123.859 328.139 122.9C327.179 121.941 325.878 121.401 324.521 121.399H166.575C165.218 121.401 163.917 121.941 162.956 122.9C161.996 123.859 161.455 125.159 161.452 126.516Z" fill="#3F3D56"/>
<path d="M165.158 127.842V231.785C165.159 232.511 165.448 233.207 165.961 233.72C166.474 234.233 167.17 234.522 167.895 234.523H323.206C323.932 234.522 324.628 234.233 325.141 233.72C325.654 233.207 325.943 232.511 325.944 231.785V127.842C325.944 127.116 325.656 126.419 325.142 125.905C324.629 125.39 323.933 125.101 323.206 125.099H167.895C167.169 125.101 166.473 125.39 165.959 125.905C165.446 126.419 165.158 127.116 165.158 127.842Z" fill="#647BB1"/>
<path d="M196.827 279.033C196.985 279.231 197.186 279.391 197.414 279.5C197.643 279.609 197.894 279.666 198.147 279.664H290.547C290.8 279.664 291.049 279.607 291.277 279.499C291.505 279.39 291.706 279.231 291.865 279.035C292.025 278.839 292.138 278.61 292.198 278.364C292.257 278.118 292.261 277.863 292.209 277.615L290.775 270.802C290.715 270.524 290.587 270.266 290.402 270.05C290.217 269.834 289.982 269.668 289.716 269.567C289.524 269.492 289.319 269.453 289.113 269.453H199.576C199.369 269.453 199.165 269.492 198.972 269.567C198.707 269.668 198.471 269.834 198.286 270.05C198.101 270.266 197.973 270.524 197.914 270.802L196.479 277.615C196.428 277.863 196.433 278.118 196.493 278.363C196.553 278.608 196.667 278.837 196.827 279.033Z" fill="#2F2E41"/>
<path d="M285.889 272.388H288.179C288.332 272.388 288.457 272.263 288.457 272.11V270.958C288.457 270.805 288.332 270.68 288.179 270.68H285.889C285.735 270.68 285.611 270.805 285.611 270.958V272.11C285.611 272.263 285.735 272.388 285.889 272.388Z" fill="#3F3D56"/>
<path d="M280.197 272.388H282.487C282.64 272.388 282.765 272.263 282.765 272.11V270.958C282.765 270.805 282.64 270.68 282.487 270.68H280.197C280.043 270.68 279.919 270.805 279.919 270.958V272.11C279.919 272.263 280.043 272.388 280.197 272.388Z" fill="#3F3D56"/>
<path d="M274.505 272.388H276.795C276.948 272.388 277.073 272.263 277.073 272.11V270.958C277.073 270.805 276.948 270.68 276.795 270.68H274.505C274.351 270.68 274.227 270.805 274.227 270.958V272.11C274.227 272.263 274.351 272.388 274.505 272.388Z" fill="#3F3D56"/>
<path d="M268.813 272.388H271.103C271.257 272.388 271.381 272.263 271.381 272.11V270.958C271.381 270.805 271.257 270.68 271.103 270.68H268.813C268.66 270.68 268.535 270.805 268.535 270.958V272.11C268.535 272.263 268.66 272.388 268.813 272.388Z" fill="#3F3D56"/>
<path d="M263.121 272.388H265.412C265.565 272.388 265.689 272.263 265.689 272.11V270.958C265.689 270.805 265.565 270.68 265.412 270.68H263.121C262.968 270.68 262.844 270.805 262.844 270.958V272.11C262.844 272.263 262.968 272.388 263.121 272.388Z" fill="#3F3D56"/>
<path d="M257.43 272.388H259.72C259.873 272.388 259.998 272.263 259.998 272.11V270.958C259.998 270.805 259.873 270.68 259.72 270.68H257.43C257.276 270.68 257.152 270.805 257.152 270.958V272.11C257.152 272.263 257.276 272.388 257.43 272.388Z" fill="#3F3D56"/>
<path d="M251.738 272.388H254.028C254.181 272.388 254.306 272.263 254.306 272.11V270.958C254.306 270.805 254.181 270.68 254.028 270.68H251.738C251.584 270.68 251.46 270.805 251.46 270.958V272.11C251.46 272.263 251.584 272.388 251.738 272.388Z" fill="#3F3D56"/>
<path d="M246.046 272.388H248.336C248.49 272.388 248.614 272.263 248.614 272.11V270.958C248.614 270.805 248.49 270.68 248.336 270.68H246.046C245.893 270.68 245.768 270.805 245.768 270.958V272.11C245.768 272.263 245.893 272.388 246.046 272.388Z" fill="#3F3D56"/>
<path d="M240.354 272.388H242.644C242.798 272.388 242.922 272.263 242.922 272.11V270.958C242.922 270.805 242.798 270.68 242.644 270.68H240.354C240.201 270.68 240.076 270.805 240.076 270.958V272.11C240.076 272.263 240.201 272.388 240.354 272.388Z" fill="#3F3D56"/>
<path d="M234.662 272.388H236.953C237.106 272.388 237.23 272.263 237.23 272.11V270.958C237.23 270.805 237.106 270.68 236.953 270.68H234.662C234.509 270.68 234.385 270.805 234.385 270.958V272.11C234.385 272.263 234.509 272.388 234.662 272.388Z" fill="#3F3D56"/>
<path d="M228.971 272.388H231.261C231.415 272.388 231.539 272.263 231.539 272.11V270.958C231.539 270.805 231.415 270.68 231.261 270.68H228.971C228.818 270.68 228.693 270.805 228.693 270.958V272.11C228.693 272.263 228.818 272.388 228.971 272.388Z" fill="#3F3D56"/>
<path d="M223.279 272.388H225.569C225.723 272.388 225.847 272.263 225.847 272.11V270.958C225.847 270.805 225.723 270.68 225.569 270.68H223.279C223.126 270.68 223.001 270.805 223.001 270.958V272.11C223.001 272.263 223.126 272.388 223.279 272.388Z" fill="#3F3D56"/>
<path d="M217.587 272.388H219.877C220.031 272.388 220.155 272.263 220.155 272.11V270.958C220.155 270.805 220.031 270.68 219.877 270.68H217.587C217.434 270.68 217.309 270.805 217.309 270.958V272.11C217.309 272.263 217.434 272.388 217.587 272.388Z" fill="#3F3D56"/>
<path d="M211.895 272.388H214.185C214.339 272.388 214.463 272.263 214.463 272.11V270.958C214.463 270.805 214.339 270.68 214.185 270.68H211.895C211.742 270.68 211.618 270.805 211.618 270.958V272.11C211.618 272.263 211.742 272.388 211.895 272.388Z" fill="#3F3D56"/>
<path d="M206.204 272.388H208.494C208.648 272.388 208.772 272.263 208.772 272.11V270.958C208.772 270.805 208.648 270.68 208.494 270.68H206.204C206.05 270.68 205.926 270.805 205.926 270.958V272.11C205.926 272.263 206.05 272.388 206.204 272.388Z" fill="#3F3D56"/>
<path d="M200.512 272.388H202.802C202.956 272.388 203.08 272.263 203.08 272.11V270.958C203.08 270.805 202.956 270.68 202.802 270.68H200.512C200.359 270.68 200.234 270.805 200.234 270.958V272.11C200.234 272.263 200.359 272.388 200.512 272.388Z" fill="#3F3D56"/>
<path d="M285.955 275.234H288.246C288.399 275.234 288.523 275.109 288.523 274.956V273.804C288.523 273.651 288.399 273.526 288.246 273.526H285.955C285.802 273.526 285.678 273.651 285.678 273.804V274.956C285.678 275.109 285.802 275.234 285.955 275.234Z" fill="#3F3D56"/>
<path d="M280.264 275.234H282.554C282.708 275.234 282.832 275.109 282.832 274.956V273.804C282.832 273.651 282.708 273.526 282.554 273.526H280.264C280.111 273.526 279.986 273.651 279.986 273.804V274.956C279.986 275.109 280.111 275.234 280.264 275.234Z" fill="#3F3D56"/>
<path d="M274.572 275.234H276.862C277.016 275.234 277.14 275.109 277.14 274.956V273.804C277.14 273.651 277.016 273.526 276.862 273.526H274.572C274.419 273.526 274.294 273.651 274.294 273.804V274.956C274.294 275.109 274.419 275.234 274.572 275.234Z" fill="#3F3D56"/>
<path d="M268.88 275.234H271.17C271.324 275.234 271.448 275.109 271.448 274.956V273.804C271.448 273.651 271.324 273.526 271.17 273.526H268.88C268.727 273.526 268.602 273.651 268.602 273.804V274.956C268.602 275.109 268.727 275.234 268.88 275.234Z" fill="#3F3D56"/>
<path d="M263.189 275.234H265.479C265.632 275.234 265.757 275.109 265.757 274.956V273.804C265.757 273.651 265.632 273.526 265.479 273.526H263.189C263.035 273.526 262.911 273.651 262.911 273.804V274.956C262.911 275.109 263.035 275.234 263.189 275.234Z" fill="#3F3D56"/>
<path d="M257.497 275.234H259.787C259.941 275.234 260.065 275.109 260.065 274.956V273.804C260.065 273.651 259.941 273.526 259.787 273.526H257.497C257.343 273.526 257.219 273.651 257.219 273.804V274.956C257.219 275.109 257.343 275.234 257.497 275.234Z" fill="#3F3D56"/>
<path d="M251.805 275.234H254.095C254.249 275.234 254.373 275.109 254.373 274.956V273.804C254.373 273.651 254.249 273.526 254.095 273.526H251.805C251.652 273.526 251.527 273.651 251.527 273.804V274.956C251.527 275.109 251.652 275.234 251.805 275.234Z" fill="#3F3D56"/>
<path d="M246.114 275.234H248.404C248.557 275.234 248.682 275.109 248.682 274.956V273.804C248.682 273.651 248.557 273.526 248.404 273.526H246.114C245.96 273.526 245.836 273.651 245.836 273.804V274.956C245.836 275.109 245.96 275.234 246.114 275.234Z" fill="#3F3D56"/>
<path d="M240.422 275.234H242.712C242.865 275.234 242.99 275.109 242.99 274.956V273.804C242.99 273.651 242.865 273.526 242.712 273.526H240.422C240.268 273.526 240.144 273.651 240.144 273.804V274.956C240.144 275.109 240.268 275.234 240.422 275.234Z" fill="#3F3D56"/>
<path d="M234.73 275.234H237.02C237.173 275.234 237.298 275.109 237.298 274.956V273.804C237.298 273.651 237.173 273.526 237.02 273.526H234.73C234.576 273.526 234.452 273.651 234.452 273.804V274.956C234.452 275.109 234.576 275.234 234.73 275.234Z" fill="#3F3D56"/>
<path d="M229.038 275.234H231.328C231.482 275.234 231.606 275.109 231.606 274.956V273.804C231.606 273.651 231.482 273.526 231.328 273.526H229.038C228.884 273.526 228.76 273.651 228.76 273.804V274.956C228.76 275.109 228.884 275.234 229.038 275.234Z" fill="#3F3D56"/>
<path d="M223.347 275.234H225.637C225.79 275.234 225.915 275.109 225.915 274.956V273.804C225.915 273.651 225.79 273.526 225.637 273.526H223.347C223.193 273.526 223.069 273.651 223.069 273.804V274.956C223.069 275.109 223.193 275.234 223.347 275.234Z" fill="#3F3D56"/>
<path d="M217.655 275.234H219.945C220.098 275.234 220.223 275.109 220.223 274.956V273.804C220.223 273.651 220.098 273.526 219.945 273.526H217.655C217.501 273.526 217.377 273.651 217.377 273.804V274.956C217.377 275.109 217.501 275.234 217.655 275.234Z" fill="#3F3D56"/>
<path d="M211.963 275.234H214.253C214.406 275.234 214.531 275.109 214.531 274.956V273.804C214.531 273.651 214.406 273.526 214.253 273.526H211.963C211.809 273.526 211.685 273.651 211.685 273.804V274.956C211.685 275.109 211.809 275.234 211.963 275.234Z" fill="#3F3D56"/>
<path d="M206.271 275.234H208.561C208.715 275.234 208.839 275.109 208.839 274.956V273.804C208.839 273.651 208.715 273.526 208.561 273.526H206.271C206.118 273.526 205.993 273.651 205.993 273.804V274.956C205.993 275.109 206.118 275.234 206.271 275.234Z" fill="#3F3D56"/>
<path d="M200.579 275.234H202.87C203.023 275.234 203.147 275.109 203.147 274.956V273.804C203.147 273.651 203.023 273.526 202.87 273.526H200.579C200.426 273.526 200.302 273.651 200.302 273.804V274.956C200.302 275.109 200.426 275.234 200.579 275.234Z" fill="#3F3D56"/>
<path d="M238.714 278.649H260.925C261.079 278.649 261.203 278.524 261.203 278.371V277.219C261.203 277.066 261.079 276.941 260.925 276.941H238.714C238.56 276.941 238.436 277.066 238.436 277.219V278.371C238.436 278.524 238.56 278.649 238.714 278.649Z" fill="#3F3D56"/>
<path d="M175.7 139.418H321.023C321.174 139.414 321.318 139.352 321.424 139.244C321.53 139.136 321.589 138.991 321.589 138.84C321.589 138.689 321.53 138.544 321.424 138.436C321.318 138.327 321.174 138.265 321.023 138.262H175.7C175.549 138.265 175.405 138.327 175.299 138.436C175.193 138.544 175.134 138.689 175.134 138.84C175.134 138.991 175.193 139.136 175.299 139.244C175.405 139.352 175.549 139.414 175.7 139.418Z" fill="#3F3D56"/>
<path d="M311.131 135.311C313.002 135.311 314.518 133.761 314.518 131.849C314.518 129.937 313.002 128.387 311.131 128.387C309.261 128.387 307.745 129.937 307.745 131.849C307.745 133.761 309.261 135.311 311.131 135.311Z" fill="#3F3D56"/>
<path d="M299.431 135.311C301.302 135.311 302.818 133.761 302.818 131.849C302.818 129.937 301.302 128.387 299.431 128.387C297.561 128.387 296.044 129.937 296.044 131.849C296.044 133.761 297.561 135.311 299.431 135.311Z" fill="#3F3D56"/>
<path d="M287.732 135.311C289.602 135.311 291.118 133.761 291.118 131.849C291.118 129.937 289.602 128.387 287.732 128.387C285.861 128.387 284.345 129.937 284.345 131.849C284.345 133.761 285.861 135.311 287.732 135.311Z" fill="#3F3D56"/>
<path d="M182.125 129.874C182.124 129.956 182.14 130.037 182.171 130.113C182.202 130.189 182.247 130.258 182.305 130.316C182.363 130.374 182.431 130.42 182.507 130.452C182.582 130.484 182.663 130.5 182.745 130.501H191.055C191.219 130.497 191.375 130.429 191.49 130.311C191.605 130.194 191.669 130.036 191.669 129.872C191.669 129.707 191.605 129.55 191.49 129.432C191.375 129.314 191.219 129.246 191.055 129.243H182.745C182.579 129.245 182.421 129.312 182.304 129.431C182.188 129.549 182.124 129.709 182.125 129.874Z" fill="#3F3D56"/>
<path d="M182.125 132.237C182.124 132.318 182.14 132.4 182.171 132.475C182.202 132.551 182.247 132.62 182.305 132.678C182.363 132.736 182.431 132.782 182.507 132.814C182.582 132.846 182.663 132.862 182.745 132.863H191.055C191.219 132.859 191.376 132.791 191.491 132.674C191.606 132.556 191.67 132.398 191.67 132.234C191.67 132.069 191.606 131.911 191.491 131.794C191.376 131.676 191.219 131.608 191.055 131.605H182.745C182.579 131.607 182.421 131.674 182.304 131.793C182.188 131.911 182.124 132.071 182.125 132.237Z" fill="#3F3D56"/>
<path d="M182.125 134.593C182.124 134.759 182.188 134.918 182.304 135.037C182.421 135.155 182.579 135.223 182.745 135.225H191.055C191.219 135.221 191.375 135.153 191.49 135.035C191.605 134.918 191.669 134.76 191.669 134.596C191.669 134.431 191.605 134.274 191.49 134.156C191.375 134.039 191.219 133.971 191.055 133.967H182.745C182.663 133.967 182.582 133.984 182.507 134.015C182.431 134.047 182.363 134.093 182.305 134.151C182.247 134.209 182.202 134.278 182.171 134.354C182.14 134.43 182.124 134.511 182.125 134.593Z" fill="#3F3D56"/>
<path d="M184.693 152.848H181.707C180.802 152.848 180.068 153.582 180.068 154.487C180.068 155.393 180.802 156.127 181.707 156.127H184.693C185.598 156.127 186.332 155.393 186.332 154.487C186.332 153.582 185.598 152.848 184.693 152.848Z" fill="#E6E6E6"/>
<path d="M218.843 152.848H215.857C214.952 152.848 214.218 153.582 214.218 154.487C214.218 155.393 214.952 156.127 215.857 156.127H218.843C219.749 156.127 220.483 155.393 220.483 154.487C220.483 153.582 219.749 152.848 218.843 152.848Z" fill="#E6E6E6"/>
<path d="M228.52 152.848H225.534C224.628 152.848 223.895 153.582 223.895 154.487C223.895 155.393 224.628 156.127 225.534 156.127H228.52C229.425 156.127 230.159 155.393 230.159 154.487C230.159 153.582 229.425 152.848 228.52 152.848Z" fill="#E6E6E6"/>
<path d="M209.555 152.575H190.996C190.091 152.575 189.357 153.309 189.357 154.214C189.357 155.119 190.091 155.853 190.996 155.853H209.555C210.46 155.853 211.194 155.119 211.194 154.214C211.194 153.309 210.46 152.575 209.555 152.575Z" fill="#E6E6E6"/>
<path d="M255.088 152.575H236.53C235.625 152.575 234.891 153.309 234.891 154.214C234.891 155.119 235.625 155.853 236.53 155.853H255.088C255.994 155.853 256.727 155.119 256.727 154.214C256.727 153.309 255.994 152.575 255.088 152.575Z" fill="#E6E6E6"/>
<path d="M193.8 160.248H190.814C189.909 160.248 189.175 160.981 189.175 161.887C189.175 162.792 189.909 163.526 190.814 163.526H193.8C194.705 163.526 195.439 162.792 195.439 161.887C195.439 160.981 194.705 160.248 193.8 160.248Z" fill="#E6E6E6"/>
<path d="M227.95 160.248H224.964C224.059 160.248 223.325 160.981 223.325 161.887C223.325 162.792 224.059 163.526 224.964 163.526H227.95C228.856 163.526 229.59 162.792 229.59 161.887C229.59 160.981 228.856 160.248 227.95 160.248Z" fill="#E6E6E6"/>
<path d="M237.626 160.248H234.64C233.735 160.248 233.001 160.981 233.001 161.887C233.001 162.792 233.735 163.526 234.64 163.526H237.626C238.531 163.526 239.265 162.792 239.265 161.887C239.265 160.981 238.531 160.248 237.626 160.248Z" fill="#E6E6E6"/>
<path d="M218.661 159.974H200.103C199.198 159.974 198.464 160.708 198.464 161.613C198.464 162.519 199.198 163.253 200.103 163.253H218.661C219.567 163.253 220.301 162.519 220.301 161.613C220.301 160.708 219.567 159.974 218.661 159.974Z" fill="#E6E6E6"/>
<path d="M264.195 159.974H245.637C244.731 159.974 243.998 160.708 243.998 161.613C243.998 162.519 244.731 163.253 245.637 163.253H264.195C265.1 163.253 265.834 162.519 265.834 161.613C265.834 160.708 265.1 159.974 264.195 159.974Z" fill="#E6E6E6"/>
<path d="M202.906 167.647H199.92C199.015 167.647 198.281 168.381 198.281 169.286C198.281 170.191 199.015 170.925 199.92 170.925H202.906C203.812 170.925 204.546 170.191 204.546 169.286C204.546 168.381 203.812 167.647 202.906 167.647Z" fill="#E6E6E6"/>
<path d="M237.057 167.647H234.071C233.166 167.647 232.432 168.381 232.432 169.286C232.432 170.191 233.166 170.925 234.071 170.925H237.057C237.963 170.925 238.697 170.191 238.697 169.286C238.697 168.381 237.963 167.647 237.057 167.647Z" fill="#E6E6E6"/>
<path d="M246.733 167.647H243.747C242.842 167.647 242.108 168.381 242.108 169.286C242.108 170.191 242.842 170.925 243.747 170.925H246.733C247.638 170.925 248.372 170.191 248.372 169.286C248.372 168.381 247.638 167.647 246.733 167.647Z" fill="#E6E6E6"/>
<path d="M227.768 167.374H209.21C208.304 167.374 207.57 168.107 207.57 169.013C207.57 169.918 208.304 170.652 209.21 170.652H227.768C228.673 170.652 229.407 169.918 229.407 169.013C229.407 168.107 228.673 167.374 227.768 167.374Z" fill="#E6E6E6"/>
<path d="M273.302 167.374H254.744C253.838 167.374 253.104 168.107 253.104 169.013C253.104 169.918 253.838 170.652 254.744 170.652H273.302C274.207 170.652 274.941 169.918 274.941 169.013C274.941 168.107 274.207 167.374 273.302 167.374Z" fill="#E6E6E6"/>
<path d="M212.013 175.046H209.027C208.122 175.046 207.388 175.78 207.388 176.685C207.388 177.591 208.122 178.325 209.027 178.325H212.013C212.919 178.325 213.653 177.591 213.653 176.685C213.653 175.78 212.919 175.046 212.013 175.046Z" fill="#E6E6E6"/>
<path d="M246.164 175.046H243.178C242.272 175.046 241.539 175.78 241.539 176.685C241.539 177.591 242.272 178.325 243.178 178.325H246.164C247.069 178.325 247.803 177.591 247.803 176.685C247.803 175.78 247.069 175.046 246.164 175.046Z" fill="#E6E6E6"/>
<path d="M255.84 175.046H252.854C251.949 175.046 251.215 175.78 251.215 176.685C251.215 177.591 251.949 178.325 252.854 178.325H255.84C256.745 178.325 257.479 177.591 257.479 176.685C257.479 175.78 256.745 175.046 255.84 175.046Z" fill="#E6E6E6"/>
<path d="M236.875 174.773H218.316C217.411 174.773 216.677 175.507 216.677 176.412C216.677 177.317 217.411 178.051 218.316 178.051H236.875C237.78 178.051 238.514 177.317 238.514 176.412C238.514 175.507 237.78 174.773 236.875 174.773Z" fill="#E6E6E6"/>
<path d="M218.843 204.469H215.857C214.952 204.469 214.218 205.203 214.218 206.108C214.218 207.013 214.952 207.747 215.857 207.747H218.843C219.749 207.747 220.483 207.013 220.483 206.108C220.483 205.203 219.749 204.469 218.843 204.469Z" fill="#E6E6E6"/>
<path d="M228.52 204.469H225.534C224.628 204.469 223.895 205.203 223.895 206.108C223.895 207.013 224.628 207.747 225.534 207.747H228.52C229.425 207.747 230.159 207.013 230.159 206.108C230.159 205.203 229.425 204.469 228.52 204.469Z" fill="#E6E6E6"/>
<path d="M255.088 204.742H236.53C235.625 204.742 234.891 205.476 234.891 206.381C234.891 207.287 235.625 208.02 236.53 208.02H255.088C255.994 208.02 256.727 207.287 256.727 206.381C256.727 205.476 255.994 204.742 255.088 204.742Z" fill="#E6E6E6"/>
<path d="M184.693 204.469H181.707C180.802 204.469 180.068 205.203 180.068 206.108C180.068 207.013 180.802 207.747 181.707 207.747H184.693C185.598 207.747 186.332 207.013 186.332 206.108C186.332 205.203 185.598 204.469 184.693 204.469Z" fill="#E6E6E6"/>
<path d="M209.555 204.742H190.996C190.091 204.742 189.357 205.476 189.357 206.381C189.357 207.287 190.091 208.02 190.996 208.02H209.555C210.46 208.02 211.194 207.287 211.194 206.381C211.194 205.476 210.46 204.742 209.555 204.742Z" fill="#E6E6E6"/>
<path d="M193.8 197.069H190.814C189.909 197.069 189.175 197.803 189.175 198.709C189.175 199.614 189.909 200.348 190.814 200.348H193.8C194.705 200.348 195.439 199.614 195.439 198.709C195.439 197.803 194.705 197.069 193.8 197.069Z" fill="#E6E6E6"/>
<path d="M227.95 197.069H224.964C224.059 197.069 223.325 197.803 223.325 198.709C223.325 199.614 224.059 200.348 224.964 200.348H227.95C228.856 200.348 229.59 199.614 229.59 198.709C229.59 197.803 228.856 197.069 227.95 197.069Z" fill="#E6E6E6"/>
<path d="M237.626 197.069H234.64C233.735 197.069 233.001 197.803 233.001 198.709C233.001 199.614 233.735 200.348 234.64 200.348H237.626C238.531 200.348 239.265 199.614 239.265 198.709C239.265 197.803 238.531 197.069 237.626 197.069Z" fill="#E6E6E6"/>
<path d="M218.661 197.343H200.103C199.198 197.343 198.464 198.077 198.464 198.982C198.464 199.887 199.198 200.621 200.103 200.621H218.661C219.567 200.621 220.301 199.887 220.301 198.982C220.301 198.077 219.567 197.343 218.661 197.343Z" fill="#E6E6E6"/>
<path d="M202.906 189.67H199.92C199.015 189.67 198.281 190.404 198.281 191.309C198.281 192.215 199.015 192.949 199.92 192.949H202.906C203.812 192.949 204.546 192.215 204.546 191.309C204.546 190.404 203.812 189.67 202.906 189.67Z" fill="#E6E6E6"/>
<path d="M237.057 189.67H234.071C233.166 189.67 232.432 190.404 232.432 191.309C232.432 192.215 233.166 192.949 234.071 192.949H237.057C237.963 192.949 238.697 192.215 238.697 191.309C238.697 190.404 237.963 189.67 237.057 189.67Z" fill="#E6E6E6"/>
<path d="M246.733 189.67H243.747C242.842 189.67 242.108 190.404 242.108 191.309C242.108 192.215 242.842 192.949 243.747 192.949H246.733C247.638 192.949 248.372 192.215 248.372 191.309C248.372 190.404 247.638 189.67 246.733 189.67Z" fill="#E6E6E6"/>
<path d="M227.768 189.944H209.21C208.304 189.944 207.57 190.677 207.57 191.583C207.57 192.488 208.304 193.222 209.21 193.222H227.768C228.673 193.222 229.407 192.488 229.407 191.583C229.407 190.677 228.673 189.944 227.768 189.944Z" fill="#E6E6E6"/>
<path d="M212.013 182.271H209.027C208.122 182.271 207.388 183.005 207.388 183.91C207.388 184.815 208.122 185.549 209.027 185.549H212.013C212.919 185.549 213.653 184.815 213.653 183.91C213.653 183.005 212.919 182.271 212.013 182.271Z" fill="#E6E6E6"/>
<path d="M246.164 182.271H243.178C242.272 182.271 241.539 183.005 241.539 183.91C241.539 184.815 242.272 185.549 243.178 185.549H246.164C247.069 185.549 247.803 184.815 247.803 183.91C247.803 183.005 247.069 182.271 246.164 182.271Z" fill="#E6E6E6"/>
<path d="M255.84 182.271H252.854C251.949 182.271 251.215 183.005 251.215 183.91C251.215 184.815 251.949 185.549 252.854 185.549H255.84C256.745 185.549 257.479 184.815 257.479 183.91C257.479 183.005 256.745 182.271 255.84 182.271Z" fill="#E6E6E6"/>
<path d="M236.875 182.544H218.316C217.411 182.544 216.677 183.278 216.677 184.183C216.677 185.089 217.411 185.823 218.316 185.823H236.875C237.78 185.823 238.514 185.089 238.514 184.183C238.514 183.278 237.78 182.544 236.875 182.544Z" fill="#E6E6E6"/>
<path d="M199.161 310.743C199.036 310.805 198.911 310.868 198.786 310.925C197.995 311.317 197.198 311.705 196.395 312.086C193.993 313.23 191.561 314.317 189.098 315.347C182.619 318.057 175.97 320.345 169.194 322.194C168.056 315.097 166.952 298.357 165.893 286.046C165.694 283.73 165.495 281.572 165.295 279.666C165.106 277.162 164.747 274.675 164.22 272.221C164.168 272.029 164.094 271.843 163.998 271.669C164.106 272.653 164.22 275.59 164.328 279.666C164.385 281.572 164.436 283.73 164.493 286.046C164.76 297.896 165.039 314.021 165.318 323.202C164.527 323.395 163.73 323.589 162.933 323.771C162.432 323.891 161.926 324.004 161.419 324.113C160.805 324.249 160.19 324.386 159.575 324.511C158.932 324.648 158.289 324.778 157.646 324.904C147.135 326.968 136.449 328.005 125.738 328C125.026 328 124.32 327.994 123.609 327.989C123.393 327.989 123.176 327.983 122.954 327.977C122.328 327.966 121.679 327.954 121.019 327.937C108.361 327.587 95.7863 325.775 83.5447 322.536L84.0399 286.046L84.1253 279.666L84.1594 277.247C83.8775 278.025 83.7088 278.839 83.6585 279.666C83.4593 281.219 83.2544 283.422 83.0495 286.046C82.2698 296.155 81.4672 312.461 80.6362 321.739C70.7952 318.939 63.6008 316.383 54.6078 311.887C54.2606 311.716 53.9077 311.539 53.5605 311.363C53.6232 310.925 53.6915 310.486 53.7541 310.037C54.7729 302.956 53.5719 293.741 54.6989 286.046C55.5584 280.11 56.4463 274.406 57.3399 269.568C58.4213 263.746 59.5198 259.17 60.6069 256.944C61.8591 254.377 63.1113 251.85 64.3237 249.431C64.8473 248.389 65.3615 247.367 65.8661 246.363C66.1393 245.822 66.4125 245.287 66.68 244.764C67.8981 242.379 69.0478 240.176 70.1008 238.224C70.8407 236.852 71.5237 235.611 72.1498 234.524C72.8841 233.244 73.5329 232.185 74.0679 231.382C78.0197 225.392 83.8997 220.932 90.7334 218.741L90.9042 218.696L91.0692 218.764L91.257 218.849L102.106 214.882L106.949 203.22L131.828 201.689L135.846 204.745L137.901 206.31L140.092 207.978L144.122 211.046L145.266 211.399L146.968 211.922L158.608 215.497L158.727 215.446L158.898 215.491C165.116 217.482 170.56 221.361 174.47 226.59C174.858 227.091 175.216 227.609 175.563 228.132C176.508 229.533 177.783 231.747 179.286 234.524C179.906 235.668 180.561 236.909 181.249 238.224C181.665 239.015 185.251 250.205 188.74 261.634C192.001 272.335 195.177 283.246 195.593 286.046C195.667 286.564 195.746 287.088 195.82 287.606C196.293 290.844 196.759 294.106 197.209 297.287C197.875 302.006 198.524 306.559 199.144 310.629C199.15 310.669 199.156 310.703 199.161 310.743Z" fill="#3F3D56"/>
<path opacity="0.2" d="M172.796 269.542L167.959 250.878L163.689 266.983L172.796 269.542Z" fill="black"/>
<path d="M9.00951 269.326C9.26028 270.056 9.73596 270.688 10.3683 271.131C11.0005 271.574 11.7569 271.805 12.5288 271.791L27.6073 271.403C28.3848 271.388 29.1365 271.121 29.7501 270.644C30.3637 270.166 30.8062 269.502 31.0114 268.752L33.1452 245.935C33.9022 246.278 34.7264 246.448 35.5573 246.431C37.0153 246.395 38.399 245.78 39.4041 244.723C40.4091 243.667 40.9532 242.254 40.9166 240.796C40.88 239.338 40.2657 237.954 39.2089 236.949C38.1521 235.944 36.7393 235.4 35.2813 235.437C34.9492 235.436 34.6179 235.47 34.2931 235.539C33.9399 235.157 33.5106 234.853 33.0328 234.647C32.555 234.441 32.0393 234.337 31.519 234.342L8.32476 234.941C8.13235 234.948 7.94093 234.972 7.75263 235.012C7.24398 235.107 6.76155 235.31 6.3378 235.607C5.91405 235.904 5.55881 236.288 5.29601 236.734C5.03321 237.179 4.86893 237.676 4.81424 238.191C4.75955 238.705 4.81571 239.225 4.97894 239.716L9.00951 269.326ZM33.5828 244.386L35.1011 238.949C35.2739 238.321 35.2779 237.658 35.1127 237.028C35.1864 237.028 35.2514 236.993 35.3251 236.993C36.3661 236.972 37.3733 237.364 38.1257 238.084C38.878 238.804 39.3142 239.792 39.3386 240.833C39.363 241.874 38.9736 242.883 38.2557 243.637C37.5379 244.391 36.5502 244.83 35.5092 244.857C34.8362 244.878 34.1701 244.716 33.5828 244.386Z" fill="#2F2E41"/>
<path d="M7.75293 235.012C8.24708 237.838 13.8027 239.824 20.483 239.479C26.626 239.196 31.6488 237.039 32.569 234.482C32.2285 234.382 31.8743 234.334 31.5193 234.342L8.32506 234.941C8.13265 234.948 7.94123 234.972 7.75293 235.012Z" fill="#3F3D56"/>
<path d="M21.707 256.788C21.7375 256.78 21.7665 256.767 21.7929 256.75L25.0674 254.607C25.107 254.581 25.1395 254.546 25.162 254.504C25.1846 254.462 25.1964 254.416 25.1964 254.369C25.1964 254.321 25.1846 254.275 25.1621 254.233C25.1397 254.192 25.1072 254.157 25.0676 254.131L21.664 251.901C21.6328 251.881 21.5978 251.866 21.561 251.859C21.5242 251.852 21.4864 251.852 21.4497 251.86C21.4131 251.868 21.3782 251.882 21.3472 251.903C21.3163 251.924 21.2897 251.951 21.2692 251.983C21.2487 252.014 21.2345 252.049 21.2276 252.086C21.2206 252.123 21.221 252.161 21.2287 252.197C21.2365 252.234 21.2513 252.269 21.2725 252.299C21.2937 252.33 21.3208 252.357 21.3522 252.377L24.3921 254.368L21.4813 256.274C21.425 256.311 21.3835 256.366 21.3643 256.431C21.3451 256.495 21.3494 256.565 21.3765 256.626C21.4036 256.688 21.4516 256.738 21.5121 256.768C21.5726 256.797 21.6417 256.804 21.7069 256.788H21.707Z" fill="#647BB1"/>
<path d="M16.5354 257.026C16.5904 257.012 16.6399 256.982 16.6777 256.94C16.7155 256.898 16.7398 256.845 16.7475 256.789C16.7552 256.733 16.746 256.676 16.721 256.625C16.696 256.574 16.6564 256.532 16.6072 256.504L13.5888 254.773L16.5062 252.606C16.5362 252.584 16.5615 252.556 16.5806 252.524C16.5998 252.492 16.6125 252.456 16.6179 252.419C16.6234 252.382 16.6215 252.345 16.6124 252.308C16.6033 252.272 16.5871 252.238 16.5648 252.208C16.5426 252.178 16.5146 252.153 16.4825 252.134C16.4505 252.115 16.415 252.102 16.378 252.096C16.3411 252.091 16.3034 252.093 16.2672 252.102C16.231 252.111 16.1969 252.127 16.167 252.15L12.9007 254.576C12.8627 254.604 12.8324 254.641 12.8124 254.684C12.7924 254.727 12.7834 254.774 12.7861 254.821C12.7889 254.868 12.8034 254.914 12.8283 254.954C12.8532 254.994 12.8877 255.027 12.9287 255.051L16.3239 256.997C16.388 257.034 16.4638 257.044 16.5354 257.026Z" fill="#647BB1"/>
<path d="M21.3815 258.666C21.4091 258.659 21.4354 258.648 21.4595 258.633C21.4915 258.614 21.5193 258.588 21.5414 258.558C21.5635 258.528 21.5794 258.494 21.5883 258.457C21.5971 258.421 21.5987 258.383 21.593 258.346C21.5873 258.309 21.5743 258.274 21.5549 258.242L16.913 250.61C16.8735 250.546 16.8102 250.5 16.737 250.483C16.6638 250.465 16.5866 250.477 16.5223 250.516C16.458 250.556 16.4119 250.619 16.3939 250.692C16.376 250.765 16.3878 250.842 16.4267 250.907L21.0685 258.538C21.1002 258.59 21.1477 258.631 21.204 258.654C21.2604 258.677 21.3226 258.681 21.3815 258.666Z" fill="#647BB1"/>
<path d="M446.887 311.362C446.54 311.538 446.187 311.715 445.84 311.885C436.847 316.382 429.653 318.937 419.812 321.738C418.981 312.46 418.178 296.153 417.398 286.045C417.194 283.421 416.989 281.218 416.789 279.664C416.739 278.838 416.571 278.024 416.289 277.245L416.323 279.664L416.408 286.045L416.903 322.535C404.662 325.774 392.087 327.586 379.429 327.936C378.769 327.953 378.12 327.965 377.494 327.976C377.272 327.982 377.055 327.987 376.839 327.987C376.128 327.993 375.422 327.999 374.71 327.999C361.371 328.009 348.08 326.397 335.13 323.201C335.409 314.02 335.688 297.895 335.955 286.045C336.012 283.728 336.063 281.571 336.12 279.664C336.228 275.589 336.342 272.652 336.45 271.667C336.354 271.842 336.28 272.027 336.228 272.22C335.701 274.674 335.342 277.161 335.153 279.664C334.953 281.571 334.754 283.728 334.555 286.045C333.496 298.356 332.392 315.096 331.254 322.193C324.478 320.343 317.829 318.056 311.35 315.346C307.935 313.923 304.58 312.388 301.287 310.741C301.913 306.643 302.567 302.05 303.239 297.286C303.763 293.592 304.303 289.796 304.855 286.045C305.709 280.251 334.714 217.681 341.55 215.49L341.721 215.444L341.84 215.496L353.48 211.921L355.182 211.397L356.326 211.045L360.356 207.977L362.547 206.309L364.602 204.744L368.62 201.687L393.499 203.218L398.342 214.881L409.191 218.848L409.379 218.763L409.544 218.694L409.715 218.74C416.548 220.931 422.428 225.391 426.38 231.381C426.915 232.184 427.564 233.242 428.298 234.523C428.924 235.61 429.607 236.851 430.347 238.223C431.4 240.175 432.55 242.378 433.768 244.762C434.035 245.286 434.309 245.821 434.582 246.362C435.088 247.364 435.603 248.386 436.124 249.43C437.337 251.849 438.589 254.376 439.841 256.943C440.928 259.168 442.027 263.744 443.108 269.567C444.002 274.405 444.89 280.108 445.749 286.045C446.876 293.74 445.675 302.955 446.694 310.035C446.757 310.485 446.825 310.923 446.887 311.362Z" fill="#3F3D56"/>
<path d="M373.922 197.501C389.902 197.501 402.857 184.546 402.857 168.566C402.857 152.586 389.902 139.631 373.922 139.631C357.942 139.631 344.987 152.586 344.987 168.566C344.987 184.546 357.942 197.501 373.922 197.501Z" fill="#FFB6B6"/>
<path opacity="0.2" d="M327.651 269.542L332.487 250.878L336.758 266.983L327.651 269.542Z" fill="black"/>
<path d="M456.347 257.381C454.617 281.218 456.41 291.714 446.859 311.367C438.169 315.621 429.118 319.091 419.812 321.738C418.844 322.011 417.875 322.277 416.903 322.535C404.662 325.774 392.087 327.586 379.429 327.936C378.768 327.953 378.12 327.965 377.494 327.976C377.272 327.982 377.055 327.987 376.839 327.987C376.128 327.993 375.422 327.999 374.71 327.999C361.371 328.009 348.08 326.397 335.13 323.201C333.832 322.882 332.54 322.546 331.254 322.193C324.478 320.343 317.829 318.056 311.35 315.346C307.935 313.923 304.58 312.388 301.287 310.741C300.541 310.366 299.795 309.99 299.061 309.603C295.288 302.966 293.142 294.895 293.096 285.197C295.709 268.486 450.576 242.97 456.347 257.381Z" fill="#2F2E41"/>
<path opacity="0.2" d="M456.343 261.463C456.431 259.988 456.53 258.463 456.645 256.876C450.874 242.464 296.007 267.981 293.395 284.691C293.402 286.224 293.467 287.71 293.577 289.162C299.904 272.668 447.03 248.417 456.343 261.463Z" fill="black"/>
<path d="M289.245 258.505L301.957 252.15L291.363 223.548L288.572 209.124C288.209 207.25 287.361 205.504 286.112 204.061C284.863 202.617 283.257 201.527 281.455 200.898C279.653 200.27 277.717 200.125 275.841 200.48C273.966 200.834 272.216 201.674 270.767 202.916C268.619 204.757 267.271 207.36 267.006 210.176C266.741 212.992 267.581 215.801 269.348 218.009L279.711 230.963L289.245 258.505Z" fill="#FFB6B6"/>
<path d="M301.957 246.853L285.008 255.327L297.87 295.63C298.794 298.524 300.45 301.131 302.677 303.197C304.905 305.263 307.628 306.718 310.583 307.421C314.227 308.289 318.053 307.974 321.506 306.521C324.958 305.068 327.859 302.553 329.786 299.341L363.894 240.879C366.311 236.85 367.057 232.036 365.972 227.465C364.888 222.894 362.059 218.928 358.09 216.414C355.956 215.062 353.56 214.175 351.06 213.81C348.56 213.445 346.011 213.611 343.579 214.296C341.147 214.982 338.887 216.171 336.945 217.788C335.003 219.405 333.424 221.412 332.309 223.68L311.491 268.039L301.957 246.853Z" fill="#3F3D56"/>
<path d="M119.247 195.504C136.83 195.504 151.083 181.25 151.083 163.667C151.083 146.084 136.83 131.831 119.247 131.831C101.664 131.831 87.4097 146.084 87.4097 163.667C87.4097 181.25 101.664 195.504 119.247 195.504Z" fill="#A0616A"/>
<path d="M87.7922 141.728C90.3808 138.239 94.1014 135.759 96.9473 132.476C98.5088 130.675 99.8054 128.635 101.561 127.022C104.822 124.027 109.384 122.799 113.81 122.646C118.66 122.522 123.472 123.541 127.855 125.621C132.239 127.702 136.071 130.785 139.042 134.621C141.355 133.265 143.669 131.908 145.982 130.552C146.896 132.957 147.81 135.363 148.724 137.769C149.474 137.117 150.431 136.751 151.425 136.737C152.418 136.723 153.385 137.062 154.153 137.692C154.921 138.323 155.441 139.205 155.621 140.183C155.801 141.16 155.629 142.17 155.135 143.032C155.686 141.331 158.208 140.97 159.599 142.094C160.99 143.218 161.362 145.218 161.135 146.991C160.85 148.937 159.99 150.753 158.665 152.206C157.34 153.659 155.61 154.683 153.699 155.145C150.68 155.818 147.166 155.111 144.75 157.042C142.813 158.59 142.228 161.409 140.251 162.905C137.815 164.75 134.372 163.897 131.344 164.304C126.046 165.017 121.851 170.436 122.487 175.744C122.008 174.069 121.504 172.346 120.416 170.985C119.328 169.625 117.496 168.705 115.828 169.205C113.069 170.032 112.618 173.791 113.287 176.592C115.06 184.019 121.778 196.026 121.778 196.026C113.054 199.467 102.66 196.213 95.9292 189.683C89.198 183.153 85.6922 173.906 84.1651 164.653C82.8701 156.806 83.0536 148.115 87.7922 141.728Z" fill="#2F2E41"/>
<path d="M410.183 184.517C416.24 170.63 412.809 157.851 405.425 151.072V151.066C402.522 144.56 398.663 139.54 394.246 138.362C392.112 136.99 390.04 135.38 387.741 134.56C386.67 134.159 385.528 133.979 384.386 134.031C383.243 134.083 382.123 134.365 381.093 134.862L379.92 134.549C378.924 132.004 377.757 131.953 376.46 133.627C371.462 131.299 366.96 130.257 362.953 130.257C349.885 130.257 342.155 141.322 340.106 154.697L351.029 157.606L354.825 151.556L353.072 158.152L359.1 159.752C368.275 171.699 357.296 199.258 343.379 214.592C346.692 213.675 349.991 212.901 353.277 212.27L365.218 194.762L357.819 210.699C361.661 210.135 366.562 210.676 371.918 211.763C373.722 209.407 374.672 206.265 373.739 203.464C375.265 206.418 376.318 209.593 376.858 212.873C388.162 215.633 403.581 217.051 411.891 218.098C418.605 215.906 418.623 191.153 410.183 184.517Z" fill="#2F2E41"/>
<path d="M414.124 137.28C418.56 147.214 409.608 151.487 401.407 151.366C393.997 151.257 387.7 146.051 387.321 138.65C387.14 135.096 388.377 131.615 390.762 128.973C393.147 126.331 396.483 124.745 400.037 124.564C407.439 124.185 411.102 130.513 414.124 137.28Z" fill="#2F2E41"/>
<path d="M208.308 298.993L201 286.804L225.299 268.369L235.402 257.702C236.714 256.317 238.367 255.3 240.196 254.753C242.025 254.206 243.965 254.149 245.823 254.587C247.681 255.025 249.391 255.943 250.783 257.249C252.175 258.555 253.199 260.204 253.755 262.03C254.577 264.736 254.316 267.656 253.027 270.174C251.737 272.691 249.52 274.609 246.844 275.523L231.144 280.883L208.308 298.993Z" fill="#A0616A"/>
<path d="M213.59 298.591L202.212 308.073L199.144 310.629L198.786 310.925C197.995 311.317 197.198 311.705 196.395 312.086C193.993 313.23 191.561 314.317 189.099 315.347C182.619 318.057 175.97 320.345 169.194 322.194C167.908 322.547 166.616 322.883 165.318 323.202C164.527 323.395 163.73 323.589 162.934 323.771C162.433 323.891 161.926 324.004 161.42 324.113C160.805 324.249 160.19 324.386 159.575 324.511C158.932 324.648 158.289 324.779 157.646 324.904C155.915 323.257 154.537 321.276 153.596 319.08C152.655 316.884 152.17 314.52 152.17 312.131C152.17 311.978 152.17 311.818 152.176 311.659L154.003 264.799L154.811 244.03C154.936 239.333 156.892 234.871 160.263 231.597C163.633 228.324 168.15 226.498 172.849 226.51C173.395 226.51 173.936 226.539 174.471 226.59C174.858 227.091 175.216 227.609 175.564 228.133C176.508 229.533 177.783 231.747 179.286 234.524C179.906 235.668 180.561 236.909 181.25 238.224C181.665 239.015 185.251 250.205 188.74 261.634L187.203 273.57L184.426 295.085L195.821 287.606L203.846 282.335L204.796 283.923L207.272 288.055L212.053 296.024L213.59 298.591Z" fill="#3F3D56"/>
<path d="M207.351 285.198C207.346 286.166 207.323 287.116 207.272 288.055C207.153 290.646 206.853 293.225 206.373 295.773C205.587 300.053 204.185 304.196 202.212 308.073C201.95 308.591 201.671 309.103 201.387 309.604C200.652 309.991 199.907 310.367 199.161 310.743C199.036 310.805 198.911 310.868 198.785 310.925C195.615 312.501 192.386 313.976 189.098 315.347C182.618 318.057 175.97 320.345 169.194 322.194C167.908 322.547 166.616 322.883 165.318 323.202C162.785 323.828 160.228 324.395 157.645 324.904C147.135 326.968 136.449 328.005 125.737 328C125.026 328 124.32 327.994 123.609 327.989C123.392 327.989 123.176 327.983 122.954 327.977C122.328 327.966 121.679 327.955 121.019 327.937C108.361 327.587 95.786 325.775 83.5444 322.536C82.5711 322.28 81.6017 322.014 80.636 321.739C71.3301 319.092 62.2786 315.622 53.5887 311.369C44.038 291.715 45.8309 281.22 44.1006 257.382C47.6522 248.509 107.74 254.776 154.003 264.799C166.559 267.519 178.09 270.519 187.203 273.57C196.617 276.717 203.441 279.916 206.116 282.921C206.741 283.543 207.171 284.335 207.351 285.198Z" fill="#2F2E41"/>
<path opacity="0.2" d="M44.1042 261.463C44.0158 259.988 43.917 258.463 43.8018 256.876C49.5732 242.464 204.44 267.981 207.053 284.691C207.045 286.224 206.98 287.71 206.87 289.162C200.543 272.668 53.4174 248.417 44.1042 261.463Z" fill="black"/>
</g>
<defs>
<clipPath id="clip0_890_172">
<rect width="500.966" height="328" fill="white"/>
</clipPath>
</defs>
</svg>
