<svg width="709" height="589" viewBox="0 0 709 589" fill="none" xmlns="http://www.w3.org/2000/svg">
<g clip-path="url(#clip0_822_44)">
<path d="M701.545 43.4493V502.945C721.669 536.548 698.121 534.339 665.822 526.146C591.116 507.149 514.152 499.313 437.286 502.879C428.016 503.305 418.759 503.903 409.516 504.673C405.167 505.034 400.818 505.431 396.469 505.865C379.869 507.539 363.311 509.748 346.795 512.494C343.687 513.008 340.586 513.548 337.493 514.113C334.597 514.627 331.712 515.163 328.816 515.721C313.085 518.729 297.425 522.237 281.836 526.244C281.815 526.255 281.783 526.255 281.762 526.266L203.373 546.459L38.1851 589C3.50964 589 -24.5998 560.012 33.4265 520.182V60.6862C-24.5998 28.9878 3.50963 0 38.1851 0L281.901 70.4643C380.397 98.9408 484.521 99.4727 583.286 72.004C650.882 53.2044 711.602 36.2224 701.545 43.4493Z" fill="#F1F2F2"/>
<path d="M297.998 95.4108C306.344 67.9815 325.323 42.8243 351.57 33.5517C377.819 24.279 416.254 38.4043 435.988 58.6854C472.084 95.7837 473.195 141.198 448.395 181.473C443.463 181.204 426.442 181.004 421.449 180.812L414.387 156.537V180.572C375.419 179.33 332.046 212.384 294.259 180.912C290.621 152.397 289.652 122.84 297.998 95.4108Z" fill="#2F2E41"/>
<path d="M404.723 375.791L412.777 397.383L411.166 418.976L256.541 399.044L261.373 380.773L279.09 359.18L404.723 375.791Z" fill="#FFBEBE"/>
<path d="M354.889 181.475C385.979 181.475 411.182 155.484 411.182 123.422C411.182 91.3605 385.979 65.3695 354.889 65.3695C323.799 65.3695 298.595 91.3605 298.595 123.422C298.595 155.484 323.799 181.475 354.889 181.475Z" fill="#FFBEBE"/>
<path d="M295.197 222.978L327.411 203.045L391.838 196.401L448.782 209.69L448.211 317.655L412.086 412.401L260.683 392.469L254.93 359.049C254.93 359.049 213.053 301.045 258.151 267.825L295.197 222.978Z" fill="#97ADE0"/>
<path d="M437.286 502.879C428.015 503.305 418.759 503.903 409.516 504.673C405.167 505.034 400.818 505.431 396.469 505.865C379.869 507.539 363.311 509.748 346.795 512.494C343.687 513.008 340.586 513.548 337.492 514.113C334.597 514.627 331.711 515.163 328.816 515.721C313.085 518.729 297.425 522.237 281.836 526.244C281.814 526.255 281.783 526.255 281.761 526.266L203.373 546.459C207.902 504.345 218.573 439.357 242.047 423.955L257.386 395.821L257.396 395.799L258.34 394.081L286.747 397.133L310.635 399.704L327.118 401.476L337.418 402.57L337.577 402.592L411.786 410.566L412.741 410.676H412.773V447.561C412.773 447.561 413.261 448.207 414.088 449.421C414.427 449.902 414.809 450.471 415.234 451.116C418.52 456.066 421.537 461.201 424.271 466.496C424.717 467.35 425.162 468.225 425.597 469.133C428.515 474.971 431.042 481.009 433.16 487.203C434.915 492.314 436.295 497.554 437.286 502.879Z" fill="#2F2E41"/>
<path d="M316.208 47.8274C337.712 34.3082 366.37 33.9185 388.213 46.8485C410.055 59.7784 424.182 85.4959 423.707 111.464C392.24 112.956 359.601 143.431 325.668 113.411L317.746 93.4189L313.076 113.426C302.863 113.425 292.631 113.411 282.379 113.385C281.239 87.4391 294.703 61.3466 316.208 47.8274Z" fill="#2F2E41"/>
<path d="M451.617 420.658L506.38 453.878C519.265 447.234 516.774 404.146 508.906 401.622L502.974 257.859C499.753 191.418 448.782 209.69 448.782 209.69L425.662 214.673L441.768 284.435L459.264 404.804C456.888 406.657 454.961 409.054 453.634 411.804C452.307 414.555 451.617 417.586 451.617 420.658Z" fill="#97ADE0"/>
<path d="M431.41 456.279L426.817 466.42L425.597 469.132L412.709 497.606L409.517 504.673C405.167 505.034 400.818 505.431 396.47 505.865C379.869 507.539 363.311 509.748 346.795 512.494L351.59 492.082L337.493 514.113C334.597 514.627 331.712 515.163 328.816 515.721C313.085 518.729 297.425 522.237 281.836 526.244L324.552 424.174V424.163L328.222 415.39L414.088 449.421L416.358 450.318L431.41 456.279Z" fill="#3F3D56"/>
<path d="M321.559 420.354C349.222 457.01 388.006 469.36 433.961 466.035L499.397 257.916L468.54 252.295L455.362 234.587L420.913 229.925L403.848 238.5L375.313 237.846L353.603 311.556L313.598 384.796L321.559 420.354Z" fill="#E6E7E8"/>
<path d="M538.466 247.997L524.702 260.329L496.301 226.618L487.729 222.965C486.009 222.232 484.481 221.091 483.27 219.633C482.059 218.176 481.199 216.444 480.76 214.579C480.321 212.713 480.316 210.767 480.744 208.9C481.173 207.032 482.023 205.295 483.226 203.83C484.327 202.49 485.696 201.411 487.24 200.668C488.783 199.924 490.464 199.533 492.167 199.522C493.87 199.511 495.556 199.88 497.108 200.604C498.66 201.328 500.042 202.389 501.159 203.715L510.065 214.286L538.466 247.997Z" fill="#FFBEBE"/>
<path d="M464.38 331.264L516.901 285.897L538.244 265.946C539.769 264.52 540.992 262.784 541.836 260.848C542.68 258.911 543.126 256.815 543.147 254.692C543.168 252.569 542.763 250.465 541.957 248.511C541.152 246.557 539.963 244.796 538.466 243.338L538.101 236.545C538.004 234.744 537.535 232.985 536.726 231.385C535.916 229.786 534.784 228.384 533.406 227.272C532.028 226.161 530.436 225.366 528.736 224.941C527.035 224.515 525.267 224.47 523.548 224.807L505.279 243.338L515.426 249.318L503.753 256.566L473.824 258.314L464.38 331.264Z" fill="#E6E7E8"/>
<path d="M450.268 230.406C473.555 230.406 492.432 210.939 492.432 186.925C492.432 162.911 473.555 143.443 450.268 143.443C426.981 143.443 408.104 162.911 408.104 186.925C408.104 210.939 426.981 230.406 450.268 230.406Z" fill="#FFBEBE"/>
<path d="M482.172 135.943C508.123 145.911 523.742 160.163 514.077 186.925C504.412 213.686 478.016 240.385 452.065 230.418C426.114 220.451 442.961 210.898 414.387 156.537C401.19 131.431 456.222 125.976 482.172 135.943Z" fill="#2F2E41"/>
<path d="M502.734 451.663C502.521 451.806 502.299 451.948 502.076 452.079C501.641 452.353 501.196 452.604 500.739 452.834L433.16 487.204L412.709 497.606L396.469 505.865C379.869 507.539 363.311 509.748 346.795 512.494C343.687 513.008 340.586 513.548 337.492 514.113C334.597 514.627 331.711 515.163 328.816 515.721C328.559 513.763 328.53 511.779 328.731 509.814C329.087 506.162 330.187 502.628 331.96 499.445C333.732 496.262 336.137 493.501 339.016 491.342C341.895 489.184 345.183 487.677 348.666 486.921C352.149 486.164 355.748 486.175 359.227 486.952C360.526 487.251 361.799 487.657 363.035 488.166L395.992 464.768L415.234 451.116L416.358 450.318L445.38 429.709L445.39 429.698L454.513 423.233L455.128 422.796L461.312 418.409L459.063 388.612L502.224 379.238L511.177 431.591C511.832 435.422 511.382 439.367 509.88 442.936C508.379 446.504 505.894 449.539 502.734 451.663Z" fill="#FFBEBE"/>
<path d="M507.558 401.622L504.833 359.18L459.063 388.61L457.916 404.804C455.54 406.657 453.612 409.054 452.286 411.804C450.959 414.555 450.268 417.586 450.268 420.658L505.031 453.878C517.916 447.234 515.425 404.146 507.558 401.622Z" fill="#97ADE0"/>
<path d="M236.478 204.41C236.807 206.572 237.592 208.633 238.777 210.449C239.962 212.264 241.519 213.789 243.338 214.917C245.157 216.045 247.193 216.747 249.304 216.976C251.414 217.204 253.548 216.952 255.554 216.238L372.263 280.301L382.168 249.391L264.332 196.139C262.946 192.743 260.4 189.989 257.176 188.4C253.953 186.811 250.276 186.496 246.842 187.516C243.409 188.535 240.457 190.818 238.547 193.932C236.637 197.046 235.901 200.774 236.478 204.41V204.41Z" fill="#FFBEBE"/>
<path d="M419.442 296.552C419.442 296.552 397.582 311.274 382.955 303.981C371.245 298.142 336.007 266.856 322.409 254.601C320.353 256.123 317.864 256.896 315.335 256.799C312.805 256.701 310.379 255.739 308.438 254.063L329.825 222.254C338.256 221.111 339.459 226.834 339.388 230.278L361.13 239.454L379.558 239.132L420.913 291.04L419.442 296.552Z" fill="#E6E7E8"/>
<path d="M416.329 427.04C414.262 430.073 411.575 432.602 408.458 434.448C405.34 436.295 401.868 437.414 398.286 437.727C394.704 438.04 391.099 437.54 387.725 436.261C384.351 434.981 381.289 432.955 378.757 430.324L225.779 435.425L206.219 436.077C186.1 436.748 174.511 412.743 187.156 396.592L200.743 379.238L249.34 387.098L266.912 387.892L379.974 393.002C384.543 388.907 390.409 386.683 396.461 386.75C402.513 386.818 408.331 389.173 412.812 393.368C417.294 397.564 420.127 403.309 420.775 409.515C421.423 415.721 419.841 421.956 416.329 427.04L416.329 427.04Z" fill="#FFBEBE"/>
<path d="M281.387 230.418C281.387 230.418 252.226 222.788 238.405 247.333C227.339 266.983 189.699 341.301 181.885 371.803C143.76 466.554 232.402 428.822 229.922 437.76L259.578 387.561C272.463 380.917 247.66 389.492 244.393 384.728L267.125 359.249L292.896 345.961L302.352 241.926L281.387 230.418Z" fill="#97ADE0"/>
</g>
<defs>
<clipPath id="clip0_822_44">
<rect width="709" height="589" fill="white"/>
</clipPath>
</defs>
</svg>
