<svg width="1440" height="123" viewBox="0 0 1440 123" fill="none" xmlns="http://www.w3.org/2000/svg">
<path d="M0 59.5584L26.7 64.8617C53.3 69.9668 107 80.8708 160 67.4886C213.3 54.1064 267 17.4293 320 9.35037C373.3 1.56886 427 22.3856 480 27.8376C533.3 33.2897 587 22.3856 640 27.8376C693.3 33.2897 747 54.1064 800 51.6282C853.3 49.15 907 22.3856 960 9.35037C1013.3 -3.88315 1067 -3.88314 1120 14.6041C1173.3 33.2897 1227 69.9668 1280 75.4188C1333.3 80.8708 1387 54.1064 1413 41.0712L1440 27.8376V123H1413.3C1386.7 123 1333 123 1280 123C1226.7 123 1173 123 1120 123C1066.7 123 1013 123 960 123C906.7 123 853 123 800 123C746.7 123 693 123 640 123C586.7 123 533 123 480 123C426.7 123 373 123 320 123C266.7 123 213 123 160 123C106.7 123 53 123 27 123H0V59.5584Z" fill="#CBD6F0"/>
</svg>
